<?xml version="1.0" encoding="UTF-8"?>
<svg id="Layer_1" xmlns="http://www.w3.org/2000/svg" xmlns:xlink="http://www.w3.org/1999/xlink" version="1.1" viewBox="0 0 11228.6 2722.7">
  <!-- Generator: Adobe Illustrator 29.2.1, SVG Export Plug-In . SVG Version: 2.1.0 Build 116)  -->
  <defs>
    <style>
      .st0 {
        fill: #524b5a;
      }

      .st1 {
        fill: #f7a69d;
      }

      .st2 {
        fill: #fafbf6;
      }

      .st3 {
        fill: #240c33;
      }

      .st4 {
        fill: #a194ad;
      }

      .st5 {
        fill: #61596a;
      }

      .st6 {
        fill: #f7f8eb;
      }

      .st7 {
        fill: #ffc18c;
      }
    </style>
  </defs>
  <path class="st3" d="M724.9,1799.8c56.1,155.8,31.5,308.4,52.6,472.2l1.3.7c34.8,134.3,76.6,161.7,70.3,107.2-2.5-21.8.9-66.1,5.1-138.3,14.4-243.9,218.1-456.6,407.8-608.4-128.6,5.1-256.4,4.2-379.4-38.3-33.4,29.9-61.1,66-86.1,103-14.6,21.6-28.4,44.1-45.1,64,14.6-66.5,68.1-123.7,111.7-173.8-67-23.9-175.9-66.7-212.7-130,22.9-18.2,46.9-25.6,75-32.7-6.2-1.8-12.5-3.7-18.5-6-15.7-6-37.6-15.4-44.7-31.6-.6-15.1,78.2-103.9,92.3-121.8-34.2,14.5-82.1,51.1-112.3,59.8-4.1,1.2-4.6.9-8.2-1l-.2-3.6c17.4-28.1,85.2-56.5,115.7-69.1-18.6-38.9-37.3-78.7-51.5-119.5-47.6-137-64.9-295-56.5-439.4,6.7-116,28.4-226.9,68.3-335.9,17.2-47,38.8-100.4,76.8-134.2,44.9,69.3,85.6,141.5,131.6,210.1,27.4,40.8,55,81.4,82.9,121.9,17.8,25.6,37.2,50.6,52.5,77.8,68.3-96.2,145.5-191.6,249.8-251,25.9-14.8,53.6-26.2,81-37.9-13-41-20.7-84.1-30-126-14.8-66.5-31.7-134.1-37.6-202.1,24.4,7.8,48,17.2,71.1,28.3,168.3,80.5,303.1,207.6,410.5,358.8,31.3,44.1,70.3,105.7,88.1,156.4,62.4,21.3,121.8,79.9,162.2,130.9,0,0,1.5,2.6.7.9h0c7.4,15.3,40.5,74.4,45,90.8,34.2-65,130.1-118.2,197.9-139.1,9.7-3,19.9-6.4,30.1-5.4,2.7,3.6,1.9,3.4,1.4,7.5-20.1,16.6-52.7,25-76.5,36.2-60.1,28.3-105,69.6-150.1,117.4,4.4,16.3,7.6,32.6,10.6,49.1,16.4,6.8,31.7,16.3,46.8,25.7l2.5-.6c57.7-13.8,166.1-56.1,222.3-30l1.7,2.8c-2.8,4.1-10.4,6.1-15.1,7.1-18.9,3.9-39.1,2.4-58.3,4.9-40.6,5.3-81.9,15.3-121.3,26.3,1.7,13.6,1.8,25.5-.5,39.1l-5,26.9c-8.4,36.5-18.7,72.1-32.6,107-7,17.5-13.7,35.2-21.4,52.4l-5.4,13.5c-8.3,13.8-22.7,32.2-27.6,47.1-12,19.5-22.9,39.6-36,58.4-94.7,136.2-221.8,231.3-371.4,300.6-38.4,17.8-82.3,29-117.3,46.1-.5,32.8-.5,67.3,3.7,99.8,4.1,31.3,12.8,62,19.9,92.7,5.8,25.2,10.3,50.8,15,76.2l7.6,37.2c16.4,70.1,25.3,156.1,28,228,2.1.2,4.2.4,6.2.6,2.1.3,4.1.6,6.2,1,2.1.4,4.1.8,6.2,1.3,2,.5,4.1,1,6.1,1.6,2,.6,4,1.2,6,1.9,2,.7,3.9,1.4,5.9,2.2,1.9.8,3.9,1.6,5.8,2.5,1.9.9,3.8,1.8,5.6,2.8,1.9,1,3.7,2,5.5,3,1.8,1.1,3.6,2.2,5.3,3.3,1.8,1.1,3.5,2.3,5.2,3.6,1.7,1.2,3.4,2.5,5,3.8,1.6,1.3,3.2,2.7,4.8,4.1,1.6,1.4,3.1,2.8,4.6,4.3,1.5,1.5,2.9,3,4.4,4.5,1.4,1.5,2.8,3.1,4.1,4.7,33.1,39.4,40.5,96.2,36,145.8-6.5,72.4-35,131.4-84.4,183.9,28.3-.7,60-1.8,82.5,18.8,8.5,7.8,13.8,18.3,14.4,29.8.2,3.2.2,7.2-2.2,9.5-19.8,19.2-84,24.5-112.2,28.8,2.9,15.4,12.8,47.1,3.2,60.6-4.5,6.3-12.2,9.4-19.7,10.1-18.5,1.6-38.4-3.7-52.1-16.5-18.8-17.5-28.4-49.7-34.6-73.9l-31.7,8.7c6.9,22.2,31.6,81,23.6,100.6-1.9,4.7-6.4,7.4-11.1,8.5-20.6,4.9-47.7-4.8-64.6-16.4-21.4-14.8-36.7-48.3-47.6-71.4-15,3.1-30,6.4-45.3,7.8,25,8.9,47.4,22.2,59.1,47.3,2.8,6,4.1,12.8,1.8,19.2-2.7,7.5-8.9,12.8-16.1,15.9-21.9,9.6-52.4,9.7-76.2,12.2-112,11.7-240.3,15.1-346.1-29.3-62.4-26.2-93.7-59.2-135.7-110.3-45-4.8-85.7-33.7-113.7-68.1-25.8-31.6-42.5-69.8-55.3-108.2-3.4-13.1-6.2-26.2-8.7-39.5-19.3-53-19.1-123.3-24.4-179.8-4.8-51-11-100.8-20.6-151.2-19.8-104.6-61.9-209.6-153.4-271.3-46-31-116.3-56.5-172.4-45.1-24,4.9-46.7,16-60.2,37.3-27.6,43.8,1.2,88.2,10.4,132.1,5.2,24.8,3.8,52.5-11,73.9-.7,1-1.4,1.9-2.1,2.9-.7.9-1.5,1.9-2.2,2.8-.8.9-1.6,1.8-2.4,2.7-.8.9-1.6,1.7-2.5,2.5-.9.8-1.7,1.6-2.6,2.4-.9.8-1.8,1.5-2.7,2.3-.9.7-1.9,1.4-2.9,2.1-1,.7-2,1.3-3,2-1,.6-2,1.2-3.1,1.8-1,.6-2.1,1.1-3.2,1.7-1.1.5-2.1,1-3.2,1.5-1.1.5-2.2.9-3.3,1.3-1.1.4-2.2.8-3.4,1.1-1.1.4-2.3.7-3.4,1-1.2.3-2.3.6-3.5.8-1.2.2-2.3.4-3.5.6-25.1,3.8-48.3-6.9-68-21.5-40.2-29.9-60.5-83.2-67.4-131.2-9.7-67.7,4.7-144.9,46.7-199.8,2.5-3.3,5.1-6.5,7.8-9.7,2.7-3.2,5.4-6.3,8.2-9.3,2.8-3,5.7-6,8.7-8.9,3-2.9,6-5.7,9.1-8.5,3.1-2.7,6.3-5.4,9.5-8,3.2-2.6,6.6-5.1,9.9-7.5,3.4-2.4,6.8-4.7,10.3-7,3.5-2.2,7-4.4,10.6-6.5,3.6-2.1,7.2-4,10.9-5.9,3.7-1.9,7.4-3.7,11.2-5.4,3.8-1.7,7.6-3.3,11.5-4.8,3.9-1.5,7.8-2.9,11.7-4.2,3.9-1.3,7.9-2.5,11.9-3.6,4-1.1,8-2.1,12.1-3,4-.9,8.1-1.7,12.2-2.4,4.1-.7,8.2-1.3,12.3-1.8,104.2-13.7,196.3,19,278.3,82.5,59,45.6,102.8,100.9,134.1,168.6,6.8,14.6,12.7,29.2,18,43.8"/>
  <path class="st5" d="M1522.2,390.1c1.8,5.4,3.5,10.9,5.2,16.4-10.1,5.3-19.7,11.6-29.4,17.6l-2.1-.6c6.8-11.9,17.5-22.8,26.3-33.4Z"/>
  <path class="st4" d="M2049.5,692.5s-11.9,10.1,0,0"/>
  <path class="st4" d="M2074.6,736.5l-25.1-44"/>
  <path class="st4" d="M2049.5,692.5"/>
  <path class="st7" d="M1759.1,1106.9c6.2,0,7.9-1,12.6,3.2,1.4,4.4,2,7.6,1.4,12.2-1.7,14.1-9.9,27.2-21.3,35.5-10.2,7.5-20.3,5.8-32.1,4.3-7.6-3.6-12.2-5.5-16.5-12.8,0-4.1.2-6.5,2.2-10.3,8.1-15.5,37.2-27.8,53.7-32.1Z"/>
  <path class="st2" d="M1650,917.3c2-.3,4.2.2,6.2.4,4.7,5.3,6.1,13.2,8.1,20-39.3,7.4-73.7,24.5-104.2,50.3-2.2,2-3.1,2.1-5.9,2.7-2.2-2.3-3-2.5-3.7-5.8-1.2-5.9.4-12,4.1-16.7,22.5-28.7,59.9-45.8,95.3-50.8Z"/>
  <path class="st5" d="M1670.9,2499.7c10.8-.6,21.7-1.5,32.5-.9,17.9,1,42.3,5.9,54.6,19.7.5,2.8,1.5,4.6,0,7.3-4.5,8.7-17.2,10.2-25.9,12.5-23.8,4.4-47.7,8.6-70.6,16.3-.8-15.8-5.5-31.1-2.4-46.9,4-5.2,5.8-5.6,11.7-8Z"/>
  <path class="st5" d="M1536.2,430.8c8,8,12.1,39.9,14.9,51.7-43.5,1.1-85.4,9.4-127.8,18.5-3.5.9-6,1.2-9.6.9,13.9-20.6,98-59.5,122.5-71Z"/>
  <path class="st2" d="M1420.4,1792.4c18.3-31.5,46.9-69.7,81.9-83.7,11.1-4.4,27.1-8.2,38.5-3.1,14.2,20.9,4.7,108.7,1.8,135.4-19.8-.7-38.7-1.2-57.3,6.8l-2.9-6.5c-2.3,12.1-1.9,33.8-12.1,40.9-8.5,0-12.8-4.1-19.2-9.2l-.6-1.1,9-2.1c-9.5-.8-17.7-.7-27,1.4-2.6-26.4-6.7-52.7-12.1-78.7Z"/>
  <path class="st3" d="M1459.4,1869.7c4.5,1.1,2.3,1.3,6.6-1.1,2.2-8,2.3-15.8,2.8-24,.8-13.5,2.5-45.4,12.8-54.5l3.1,1.4c5.1,16.9.8,32.9-2.3,49.8-2.3,12.1-1.9,33.8-12.1,40.9-8.5,0-12.8-4.1-19.2-9.2l-.6-1.1,9-2.1Z"/>
  <path class="st5" d="M1644.4,2129.3c11.6,2,23.5,7.7,33.7,13.5,26.3,14.9,40.4,38,48,66.5,21,78.8,4.8,163.9-35.4,233.5-9.4,16.2-21,30.7-33.1,44.9-1.7-47.7,0-95.6-1.1-143.4-1.6-71.9-6.5-143.3-12.1-214.9Z"/>
  <path class="st1" d="M1462.6,195.6c23.3,8.7,59.5,47.3,77.7,66,105.2,108,158.1,171.5,224.6,308.6l-20.2,10.5c-17.3-16.2-39.4-26.5-61.2-35.2-2.6-.9-20.1-6.4-20.9-8.1-6.4-13.7,2.3-20.7-13.2-35.9-20.9-20.4-58.6-18.6-85.8-19.2-4.2-18.7-9.2-37.1-14.2-55.6,10.4-2.9,20.9-5.9,31-9.7,15.3-5.8,35.4-14,41.9-30.5,1.8-4.6,1.7-8.1-.2-12.7-11.3-2.9-62.6,19.6-77.5,24.8-1.9-5.8-12.5-34.1-8.9-38.6,3.8-4.8,8-2.2,10.3-9.4-4.2-5.8-8.6-6.9-15-9.9-20.6-49.7-43.6-97.5-68.5-145.2Z"/>
  <path class="st5" d="M1482.3,1841.2l2.9,6.5c17.1,3.6,39.2-1.6,56.7-3.5-32.9,171.6-51.9,352.3-23.2,526,9.4,56.9,24.9,111.2,38.7,167.1-10.2,3.9-20.8,7.4-30.8,11.7-15.2-67.2-29.1-133.6-40-201.6-15.4-95.8-24.7-193.7-35-290.3-4.8-45.4-9-90.5-12.6-136-.8-10.4-3.8-20.8-4.1-31.2-.2-5.3,1-9.3,3-14.1,4.5-2.2,8.2-2.5,13-3,6.3,5.1,10.7,9.2,19.2,9.2,10.2-7,9.9-28.8,12.1-40.9Z"/>
  <path class="st5" d="M1352.6,73.8c38.9,16.5,74.4,39.1,109.5,62.2,30.5,20,61.3,39.8,90.1,62.2,70.6,55,135.7,122.2,190.5,192.8,41.5,53.4,77.9,113.6,119.5,165.1-26.6,0-53.7.1-79,9.1-12.6-36.6-29.5-69.9-48.7-103.3-61.7-115.7-180.8-241.1-299.4-298.5,16.3,57.8,42,113.8,64.1,169.7-28.7-1.8-52.5-.6-80.5,6.6-15.4-89.9-44.5-177.4-66.1-265.9Z"/>
  <path class="st5" d="M1561.7,1785.9c10.8,9.1,21.1,90.9,23.4,106.5,5.9,40.9,13.6,81.5,19.3,122.4,9.9,76.4,17.2,153,22.1,229.9,7.5,124.1-2.1,250,28.1,371.8-12.5,1.9-23.1,1.8-35.4,0-1.9-.9-2.4-.9-4.1-2.6-18-17.1-32.9-85.9-39.7-112.3-13-50.6-27.1-101.5-35.2-153.1-25.6-163.4-6.1-281.8,11.7-442.7,4.4-39.8,6.6-79.9,9.9-119.8Z"/>
  <path class="st5" d="M314.2,1533.1c65.2-7.3,134.7,13.1,190.3,46.2,177.6,105.9,225.3,281.1,236.9,474.4,5.8,96.1,4.7,193.2,29.1,287,11,42.5,29.6,89.4,69.4,112.7,4.1,21.4,10.3,41.9,17.7,62.3-17.1-7.3-32.4-16.5-46.7-28.5-86.1-72.7-96.3-209.7-104.6-314.6-12.9-101.8-17-181-51.6-280.2-32.1-92-89.6-177.2-180.1-220.2-53.8-25.5-122.5-42.3-180.4-21-2.8,1-5.5,2.1-8.2,3.3-2.7,1.2-5.3,2.5-7.9,3.9-2.6,1.4-5.1,2.9-7.6,4.5-2.5,1.6-4.9,3.2-7.2,5-2.4,1.8-4.6,3.6-6.9,5.5-2.2,1.9-4.4,3.9-6.4,6-2.1,2.1-4.1,4.2-6,6.5-1.9,2.2-3.7,4.5-5.5,6.9-58.5,79.9,21.8,151.5-4,203.8-4,8.1-10.5,14.5-19.4,17-11.9,3.3-23.2.5-33.4-6.1-32.3-20.7-51.3-68.8-58.6-104.7-12.2-60.1-6.3-128.3,28.7-180.2,43.1-64,91.8-75.7,162.2-89.6Z"/>
  <path class="st2" d="M1828.1,575.4c46.7-4.6,87.8,15.8,125.3,42,2.2,1.6,4.4,3.1,6.6,4.7,2.2,1.6,4.3,3.2,6.5,4.9,2.1,1.7,4.3,3.4,6.4,5.1,2.1,1.7,4.2,3.5,6.2,5.2,2.1,1.8,4.1,3.6,6.1,5.4,2,1.8,4,3.7,6,5.5,2,1.9,3.9,3.8,5.8,5.7,1.9,1.9,3.8,3.9,5.7,5.8,1.9,2,3.7,3.9,5.5,6,1.8,2,3.6,4,5.4,6.1,1.8,2.1,3.5,4.1,5.2,6.2,1.7,2.1,3.4,4.2,5.1,6.3,1.7,2.1,3.3,4.3,4.9,6.5,1.6,2.2,3.2,4.4,4.8,6.6,1.6,2.2,3.1,4.5,4.6,6.7,1.5,2.3,3,4.5,4.4,6.8,1.4,2.3,2.9,4.6,4.3,6.9,1.4,2.3,2.8,4.7,4.1,7,1.3,2.4,2.6,4.7,3.9,7.1,1.3,2.4,2.5,4.8,3.7,7.2,1.2,2.4,2.4,4.9,3.6,7.3,1.2,2.5,2.3,4.9,3.4,7.4,1.1,2.5,2.2,5,3.2,7.5,1,2.5,2,5,3,7.6,1,2.5,1.9,5.1,2.8,7.6.9,2.6,1.8,5.1,2.6,7.7.8,2.6,1.7,5.2,2.4,7.8.8,2.6,1.5,5.2,2.2,7.8.7,2.6,1.4,5.2,2.1,7.9.7,2.6,1.3,5.3,1.9,7.9.6,2.6,1.1,5.3,1.7,8,.5,2.7,1,5.3,1.5,8,12.4,71.5.1,156-42.4,216.2-28.3,40.1-68.8,65.6-117,73.9-49.9,6.1-109.4-17.6-148.3-48-70.6-55.1-105.1-138.5-116-225.1-8.8-69.8,5.9-151.4,50.1-207.9,28.2-36,67.4-59.6,112.9-65.4Z"/>
  <path class="st3" d="M1826.1,593.2c44.5-5.5,90.6,21.7,124.9,47,68.2,50.3,108.8,117.3,121.1,201.4,9.9,67.6-.2,142.6-42.4,198.2-25.3,33.4-58.3,56.6-100.3,62.5-44.8,4-90.5-9.3-127.5-34.5-63.4-43.2-105.1-122-118.9-196-12.9-68.7,0-151.9,40.3-210,25-36,59.6-60.6,102.8-68.5Z"/>
  <path class="st5" d="M1819.8,607.3c18.3-1.2,34.5.8,51.4,8.2,16.9,7.4,31.9,19.3,46.1,30.7,47.9,38.3,83.6,82.6,104.8,140.5,27,73.8,31,158-2.6,230.2,1.2-25.3,3.8-50.6,5.9-75.9-.3-20.2-1.7-39.9-5.1-59.8-.8-4.8-1.7-9.6-2.7-14.4-1-4.8-2.2-9.5-3.4-14.3-1.3-4.7-2.6-9.4-4.1-14.1-1.5-4.7-3.1-9.3-4.8-13.9-1.7-4.6-3.5-9.1-5.5-13.6-1.9-4.5-4-8.9-6.2-13.3-2.2-4.4-4.4-8.7-6.8-13-2.4-4.3-4.9-8.5-7.4-12.6-2.6-4.1-5.3-8.2-8.1-12.2-2.8-4-5.7-8-8.7-11.8-3-3.9-6.1-7.7-9.2-11.4-3.2-3.7-6.4-7.4-9.8-10.9-3.4-3.6-6.8-7-10.3-10.4-3.5-3.4-7.1-6.7-10.8-9.9-3.7-3.2-7.5-6.3-11.3-9.3-3.8-3-7.8-5.9-11.8-8.8-25.1-17.5-67.8-38-99.3-34.6-21,2.2-40.3,9.5-60.9,13.1.2-4.5,1.5-6.3,4-10,17.1-25.2,46.9-43.4,76.4-48.5Z"/>
  <path class="st6" d="M1782.7,665.1c12.3-1.4,24.2-.4,36.3,2.3,61,13.6,112.7,60.9,145,112.8,35.7,57.2,52.8,132.7,43.1,199.6-3.4,23.7-11,46.5-16.4,69.8-1.8,1.9-3.6,3.7-5.6,5.4-30.2,26.8-62.1,28.2-100,25.5,1-1.4,1.9-2.9,2.8-4.4,14.4-24.1,12.4-48.3,5.5-74.3-8.8-22.9-23.2-47.7-44.4-61.2-8.4-5.3-18.5-8.6-28.5-6.1-9.8,2.5-17.1,10-21.6,18.8-14.6,28.7-2.5,67.6,6.3,96.3-49.5-38.1-86-99.8-102.3-159.5-14.8-54.5-16.4-132.5,13.7-182.4,14.9-24.7,38.9-36.2,65.9-42.5Z"/>
  <path class="st2" d="M1269.8,837.6c74-1.7,150.7,26.2,206.5,74.8,62.7,54.5,96,132.3,101.6,214.3,5,73.2-14,147.7-63.5,203.4-49.8,56-128.6,90.6-203,95-1.3.1-2.6.2-3.9.3-4.8.3-9.7.5-14.6.6-4.9,0-9.7,0-14.6-.1-4.9-.2-9.7-.4-14.5-.8-4.8-.4-9.7-.9-14.5-1.5-4.8-.6-9.6-1.4-14.4-2.3-4.8-.9-9.5-1.9-14.3-3-4.7-1.1-9.4-2.3-14.1-3.7-4.7-1.3-9.3-2.8-13.9-4.4-4.6-1.6-9.2-3.2-13.7-5-4.5-1.8-9-3.7-13.4-5.7-4.4-2-8.8-4.1-13.1-6.4-4.3-2.2-8.6-4.6-12.8-7-4.2-2.4-8.3-5-12.4-7.6-4.1-2.6-8.1-5.4-12-8.2-3.9-2.8-7.8-5.8-11.6-8.8-3.8-3-7.5-6.1-11.2-9.4-61.4-54.8-90.4-125.8-94.6-207.4-4-77.3,17.8-160.1,70.8-218.4,52.4-57.6,124.6-85.4,201-88.7Z"/>
  <path class="st3" d="M1246.3,857.5c4.2-.4,8.3-.8,12.5-1,4.2-.2,8.4-.4,12.5-.5,4.2,0,8.4,0,12.5,0,4.2.1,8.4.3,12.5.7,4.2.3,8.3.7,12.5,1.2,4.2.5,8.3,1.1,12.4,1.8,4.1.7,8.2,1.5,12.3,2.3,4.1.9,8.2,1.8,12.2,2.9,4.1,1,8.1,2.2,12.1,3.4,4,1.2,8,2.5,11.9,3.9,3.9,1.4,7.8,2.9,11.7,4.5,3.9,1.6,7.7,3.2,11.5,5s7.6,3.6,11.3,5.5c3.7,1.9,7.4,3.9,11,6,3.6,2.1,7.2,4.2,10.7,6.5,3.5,2.2,7,4.6,10.4,7,60.9,42.1,108.9,111.4,121.7,184.9,11.6,66.8-1.4,148.9-41.4,204.6-45.5,63.4-114.3,95.6-189.6,108.2-73.1,6.6-149.8-8.2-209.3-53.5-58.3-44.3-93.2-110.7-102.4-182.6-9.8-75.9,9.1-156.2,56.5-216.9,43.8-56.2,104.3-85.1,174.1-94Z"/>
  <path class="st5" d="M1244.8,871.5c27.6-2.8,58.9-1.3,85.9,4.6,63.4,13.7,131.2,54.6,166.4,109.8-20.1-14-37.4-34.7-56.2-50.8-47.3-40.4-104-60.4-166.4-55.3-45.6,3.7-90,23.8-119.7,59.1-41.6,49.5-60.7,124.4-54.5,188.1,7.3,75.4,41.9,139,99.8,187.1,70.1,51.1,126.7,54.4,210.5,50.2-26.7,9.7-53.5,19.1-81.6,23.6-66.8,10.6-142.8-4.9-197.7-45.3-56.5-41.6-92-105.8-102.1-174.7-9.9-67.8,7.9-148,49.4-203.1,43.6-57.9,95.6-83.6,166.4-93.3Z"/>
  <path class="st6" d="M1284.1,893.6c8.6-.6,17.5-.3,26.1.6,66.6,7.3,127.9,47.8,168.8,99.7,44.4,56.4,62.4,124.2,54.2,194.8-3.1-13.2-5.9-26.7-10.7-39.4-7.7-20-21-46.8-41.7-55.3-.9-.4-1.7-.7-2.6-.9-.9-.3-1.8-.5-2.7-.7-.9-.2-1.8-.3-2.8-.4-.9,0-1.9-.1-2.8,0-.9,0-1.9,0-2.8.2-.9.1-1.8.3-2.7.5-.9.2-1.8.5-2.7.8-.9.3-1.7.7-2.6,1.1-12.8,5.9-20.6,19.8-24.9,32.6-11.9,35.1-8.7,85,8,118.2,11.2,22.3,25.5,32.3,48.4,39.8l-11.5,13.1c-28.2,28.4-57,43.8-97.1,47.9-65.2,6.6-128.6-13.6-179.1-55-50-40.9-80.1-98.9-86.3-163.2-5.8-60.8,8.8-128.1,48.6-175.7,31.2-37.4,71.6-54.1,119.2-58.6Z"/>
  <path class="st5" d="M2107.7,871.2c15.7,6,26.2,12.8,36.8,26.1-1.6,21.1-5.8,42.1-10.7,62.7-1.5,6.1-3,12.3-4.6,18.4-1.6,6.1-3.3,12.2-5.1,18.2-1.8,6.1-3.6,12.1-5.5,18.1-1.9,6-3.9,12-6,18-2.1,6-4.2,11.9-6.4,17.8-2.2,5.9-4.5,11.8-6.8,17.6-2.4,5.9-4.8,11.7-7.3,17.5-2.5,5.8-5.1,11.6-7.7,17.3-2.6,5.7-5.4,11.4-8.1,17.1-2.8,5.7-5.6,11.3-8.6,16.9-2.9,5.6-5.9,11.1-9,16.7-3.1,5.5-6.2,11-9.4,16.4-3.2,5.4-6.5,10.8-9.8,16.2-3.3,5.4-6.7,10.7-10.2,16-3.5,5.3-7,10.5-10.6,15.7-3.6,5.2-7.2,10.3-11,15.4-3.7,5.1-7.5,10.1-11.3,15.1-3.8,5-7.8,10-11.7,14.9s-8,9.8-12.1,14.6c-4.1,4.8-8.2,9.6-12.4,14.3-4.2,4.7-8.5,9.4-12.8,14-4.3,4.6-8.7,9.1-13.1,13.6-4.4,4.5-8.9,8.9-13.5,13.3-4.5,4.4-9.1,8.7-13.8,13-4.6,4.3-9.3,8.5-14.1,12.6-4.8,4.1-9.6,8.2-14.4,12.3-4.9,4-9.8,8-14.7,11.9-5,3.9-10,7.8-15,11.5-5,3.8-10.1,7.5-15.3,11.2-5.1,3.7-10.3,7.3-15.6,10.8-5.2,3.5-10.5,7-15.8,10.4-5.3,3.4-10.7,6.7-16.1,10-53.9,32.7-111.2,57.7-170.2,79.7-221.6,82.5-473.8,109.7-705,53.2,41-33.2,87.5-68.3,135.2-91.3,16.5-7.9,33.5-16.5,50.3-23.6,12.6-5.3,27.5-8.8,39-16.2,4.9-3.2,6.1-5,7.3-10.6-3.7-3-3.9-2.9-8.4-2.6-72.2,4.9-193.4,82.6-240.9,137.9-65.7-26.4-130.3-51.9-190.3-90.2,25.4-14.2,86.1-37,103.8-51.6,3.3-2.7,2.3-1.2,2.8-5.7-12.4-12.9-75.8-28-97.2-36.4,20.4-24.7,70.7-93.4,81.4-121.3,41.3-12.7,158.4-31.3,200.4-18.4,6.3,1.9,6.3,4.3,9,10,8.3,19.7,19.8,37.9,30.9,56.1-16.7-3.3-33.6-5-50.7-5.1-67.7-1-166.7,29.2-216.2,76.9,20.8-2.6,41.8-12.7,61.4-19.8,69.2-25.2,138.2-46.3,212.2-31.3,47.9,43.9,74.2,73.1,137.5,97.1,80.3,30.3,174.7,24.8,252.5-11,72.1-33.1,120-91.7,147-165.4,29.1-79.2,20.7-160.6-14-236.3,21.5-21.7,59.2-51.6,90.8-54,3.4-.3,9.2.1,12.1,2.2,8.7,6.2,21,39.5,28.6,50.2,21.9,30.9,48.7,56.7,77.5,81.1-22.8.6-42.7,9.4-60.5,23.4-12.1,9.5-25.8,24.3-27.2,40.4-.6,6.6,1.7,12.6,6.2,17.5,15,16.3,37.5,15.3,57.7,16.4,13.6,28.6,16,72.5,9.4,103.4-2.9,13.6-8.7,26.4-11.7,40l2.3,1.8c3.5-.2,4.5.4,7.4-2,16.8-14.2,22-53,24.5-73.2,11.9,6.8,22.6,11.1,36.6,10.6,10.9-.4,25.9-2.4,33.1-11.8,4.5-6,3.9-12,2.8-18.9l-2.6-.4c-5.3,4.7-10.9,10-17.3,13.1-7.4,3.5-15.4,2.4-22.8-.6-25.9-10.8-36.2-46.1-46.4-70,7.6-4.4,15.2-8.9,21.1-15.5,15.7-17.7,16.5-38.4,15.4-60.8,33.3,16.8,67.7,31.2,105.4,33,46.7,2.2,88.7-16.4,122.6-47.7,59.8-55.1,75.4-139.6,78.8-217.5Z"/>
  <path class="st5" d="M1525.8,1590.8l3.7.5c7.6,29.4,4.5,67.8,10,99.2-14-.2-25.8.3-38.9,5.9-34.3,14.7-73.4,57.7-83.2,94-6.8,25-1.8,60.8-1.2,86.8,1,49,3.1,97.9,6.4,146.8,3.3,48.9,7.7,97.6,13.2,146.3,5.6,48.7,12.2,97.2,20.1,145.5,7.8,48.3,16.8,96.5,26.9,144.4,8.5,40.1,19.1,79.6,31.7,118.6,5.9,18.4,13.4,36.5,18.7,55.1,1.4,4.8,3.4,8.6,1.4,13.3-6.4,2.1-14.4,0-20.7-2-38.1-12.2-59.3-63.8-75.5-97.1-69.2-142.4-109-297.9-137.9-453-6.9-36.8-22.1-168.2-34.8-191.2l.5,1.2-3,.6c-6,33.4.5,72.8,3.5,106.3,16.2,179.1,64.9,399.4,153.7,557.4-32.7,7.5-61.1,11.5-94.7,11.6.6-1.3,1.1-2.6,1.7-3.9,24.5-60.5,11.5-137.9-13.4-196-34.9-81.1-99.3-157.6-182.5-191-10.9-3.5-21.7-6.1-33-7.8-43.3-6.3-87.8,8.5-122.2,34.7-28.4,21.7-50.2,51.9-54.7,87.8-.9,7.1-2.8,18.6,1.8,24.4,6.1-5.7,8.4-17.5,11.6-25.2,13.8-33,35.9-64.1,68.2-80.9,2.1-1.1,4.3-2.2,6.5-3.2,2.2-1,4.4-2,6.7-2.9,2.3-.9,4.5-1.8,6.8-2.6,2.3-.8,4.6-1.5,6.9-2.2,2.3-.7,4.7-1.3,7.1-1.9,2.4-.6,4.7-1.1,7.1-1.5,2.4-.4,4.8-.8,7.2-1.2,2.4-.3,4.8-.6,7.3-.8,2.4-.2,4.9-.3,7.3-.4,2.4,0,4.9,0,7.3,0,2.4,0,4.9.1,7.3.3,2.4.2,4.8.4,7.3.7,2.4.3,4.8.6,7.2,1,2.4.4,4.8.9,7.2,1.4,2.4.5,4.7,1.1,7.1,1.8,2.3.7,4.7,1.4,7,2.1,71.1,23.3,128.8,89.6,161,154.9,31.8,64.2,51,143.2,27.5,213.3-12.7,11.7-38.1,23.2-45.2,38.7l2.1,2c18.3-1.4,29.5-10.2,44.4-20,22,0,45.8.7,67.2,5.8,21.9,5.2,38,15.6,49.7,34.9-130.9,23.6-305,34.4-425.5-30.2-57.4-30.8-96.3-80.9-114.5-143.3-39.3-134.8,39.2-335.9,104.4-455,64.8-118.4,148.6-222.7,239.1-322.1,16.2-17.9,38.1-48,60.3-57.6,23.2-10,77.3-9.1,105-13.6,45.2-7.8,89.7-18,133.8-30.7Z"/>
  <path class="st5" d="M778,287.7c7.2,4.3,113,178.5,126.7,198.8,38.5,57.1,83.5,127.1,135,172.9-3.5,7.3-7.4,14.8-9.7,22.6-1.9,6.3-2.6,12.5.5,18.4h4.3c21.9-13.4,48.8-58.6,66.9-80,25.9-30.7,52.8-61.3,80.9-90.1,24.2-24.8,50.9-46.2,78.5-67.1,74.3-56,155.5-101.8,251-102.8-11.7,18.2-24.9,35.5-40.7,50.4-29.7,28.1-141,108.3-154.3,134.9-1.9,3.8-.9,3.9.3,7.7,11.4,7.6,35.2-4.7,46.8-9.1,58-21.9,126.4-34.7,188.4-35.9,19.7-.4,65.9-1.9,81.1,12.8.8,2.9,1.7,4.1.8,7.1-1.9,6.2-7.3,11.9-12.7,15.3-36.2,22.5-123.2,41.5-167.8,57.3-22.7,8-44,17.6-64.6,30,8.8-.7,17.6-1.7,26.4-2.8,56.6-7,208.3-35.3,243-79.7,24.3,15.5,50.1,29.1,75,43.8-24.6,24.1-48.1,47.3-64,78.3-36.9,71.7-42,155-17.6,231.4-50.1,2.4-80.6,25.3-114,60.7-29.4-37.5-36.7-58.8-78.9-87.3-71.3-48-160.6-69.6-245.5-52.9-4.6.9-9.3,1.9-13.9,3.1-4.6,1.1-9.2,2.4-13.7,3.8-4.5,1.4-9,2.9-13.5,4.5-4.5,1.6-8.9,3.3-13.3,5.1-4.4,1.8-8.7,3.7-13,5.8-4.3,2-8.5,4.2-12.7,6.4s-8.3,4.6-12.3,7c-4.1,2.4-8,5-12,7.6-3.9,2.6-7.8,5.4-11.6,8.2-3.8,2.8-7.5,5.8-11.2,8.8-3.6,3-7.2,6.1-10.7,9.3-3.5,3.2-6.9,6.5-10.2,9.9-3.3,3.4-6.6,6.8-9.7,10.4-3.2,3.5-6.2,7.1-9.2,10.8-3,3.7-5.9,7.4-8.7,11.3-2.8,3.8-5.5,7.7-8.1,11.7-54.7,82.3-56.6,182.4-37.7,276.1-70.3-12.4-143.3.2-211,20.3-4.7-11.1-9.2-22.2-13.6-33.3-4.4-11.2-8.6-22.4-12.6-33.7-4-11.3-7.9-22.7-11.6-34.1-3.7-11.4-7.3-22.9-10.6-34.4-3.4-11.5-6.6-23.1-9.6-34.7-3-11.6-5.9-23.3-8.6-35-2.7-11.7-5.2-23.4-7.6-35.2-2.4-11.8-4.6-23.6-6.6-35.4-2-11.8-3.9-23.7-5.6-35.6s-3.2-23.8-4.5-35.7c-1.3-11.9-2.5-23.9-3.5-35.8-1-12-1.8-23.9-2.4-35.9-.6-12-1.1-24-1.4-36-.3-12-.4-24-.4-36,0-12,.3-24,.7-36,.4-12,1-24,1.7-36,3.3-55.3,8.9-109.6,20.9-163.8,17.2-78,45.8-152.8,72-228.1Z"/>
  <path class="st3" d="M796.2,372.4c70,118.3,134.7,239.5,208.2,355.8,1.1,3,2.6,4.5,1.3,7.7-5.5,13.6-23.1,29.3-32.3,41.4-14.3,18.8-28.8,38.9-40.9,59.2-17.1,28.8-32.8,59.6-46.7,90.1-9.2,20.2-16.4,47.6-29.4,65.1-1.9.6-3.9,1.4-5.8,1.8,21.6-83.3,74.6-211.1,146.2-261.2-1-.1-2.1-.2-3.1-.3-33.4-4.9-113.9-164-129-194.1-17.5-34.8-40.3-91.3-62.9-120.7-2.5,2.6-2.8,7.5-3.6,10.9-4.6,68.8-11.8,137.1-11.3,206.1.5,60,7.4,118.4,14.4,177.8,9,55.4,23.4,109.8,38.3,163.8-15.3-12.1-41.2-131.3-46-156.7-20.2-109.2-22.6-284.9-.4-393.1-4.4-12.8,2.4-39.4,3.1-53.6Z"/>
  <path class="st1" d="M798.2,428.1c.8-3.5,1.2-8.4,3.6-10.9,22.6,29.3,45.4,85.8,62.9,120.7,15.1,30.1,95.7,189.3,129,194.1,1,.2,2.1.2,3.1.3-71.6,50.1-124.6,177.9-146.2,261.2-5.7-4.7-8-11.1-11.1-17.6-14.9-54-29.4-108.4-38.3-163.8-7-59.4-13.9-117.8-14.4-177.8-.5-69.1,6.6-137.3,11.3-206.1Z"/>
  <g>
    <path class="st0" d="M3023.8,2286.9h-275.3c-26.5,0-48.9-9.2-67.4-27.6-18.4-18.4-27.6-40.9-27.6-67.4s17.6-64.9,52.9-84.2c12.8-6.4,26.8-9.6,42.1-9.6h275.3c50.5,0,93.4-17.8,128.7-53.5,35.3-35.7,52.9-78.3,52.9-128v-303c-54.5,31.3-115,46.9-181.6,46.9s-126.6-16-182.8-48.1-101.4-76.3-135.9-132.9c-34.5-56.5-51.7-119.6-51.7-189.4v-631.2c0-25.6,9.2-47.7,27.6-66.1,18.4-18.4,40.9-27.7,67.4-27.7s47.7,9.2,66.1,27.7,27.7,40.5,27.7,66.1v631.2c0,50.5,17.8,93.4,53.5,128.7,35.7,35.3,78.3,52.9,128,52.9s93.4-17.6,128.7-52.9c35.3-35.3,52.9-78.1,52.9-128.7v-631.2c0-14.4,3.2-28.1,9.6-40.9,19.2-35.3,47.7-52.9,85.4-52.9s47.7,9.2,66.1,27.7c18.4,18.4,27.7,40.5,27.7,66.1v1267.3c-2.4,66.5-19.6,126.4-51.7,179.8-32.1,53.3-74.5,96-127.4,128-58.5,35.3-122.3,52.9-191.2,52.9Z"/>
    <path class="st0" d="M4173,2286.9c-25.7,0-47.9-9.2-66.7-27.6-18.9-18.4-28.3-40.9-28.3-67.4v-365.5c-48.1,48.9-100.6,73.4-157.5,73.4s-109.8-12.8-158.7-38.5c-56.9-29.7-102.6-71.8-137.1-126.3-34.5-54.5-51.7-115.4-51.7-182.8v-416c0-26.4,9.2-48.9,27.6-67.3s40.9-27.7,67.4-27.7,47.7,9.2,66.1,27.7c18.4,18.4,27.7,40.9,27.7,67.3v416c0,44.1,15.4,81.6,46.3,112.4,30.8,30.9,68.3,46.3,112.4,46.3s80.3-15.4,111.2-46.3,46.3-68.3,46.3-112.4v-416c0-26.4,9.4-48.9,28.3-67.3,18.8-18.4,41.1-27.7,66.7-27.7s48.9,9.2,67.3,27.7c18.4,18.4,27.7,40.9,27.7,67.3v1055.7c0,26.5-9.2,48.9-27.7,67.4-18.4,18.4-40.9,27.6-67.3,27.6Z"/>
    <path class="st0" d="M5009.6,2286.9h-215.2c-65,0-123.9-16-176.8-48.1s-95-74.9-126.2-128.7c-29.7-51.3-44.5-108.2-44.5-170.7v-543.5c0-97,34.1-180.1,102.2-249.5s152.3-104.4,252.5-105.2c95.4,4.8,174.7,38.9,238.1,102.2,68.1,67.3,102.2,149.1,102.2,245.3v226c0,80.2-28.3,148.5-84.8,205-56.5,56.5-124.8,84.8-205,84.8h-216.4v34.9c0,44.1,15.4,81.6,46.3,112.4,30.8,30.9,68.3,46.3,112.4,46.3h215.2c18.4,0,35.3,4.8,50.5,14.4,29.7,19.2,44.5,45.7,44.5,79.4s-9.2,48.9-27.7,67.4c-18.4,18.4-40.9,27.6-67.3,27.6ZM4829.2,1715.8c33.7,0,62.5-12,86.6-36.1s36.1-53.3,36.1-87.8v-203.2c0-44.1-15.1-81.1-45.1-111.2-30-30-67.9-45.9-113.6-47.5-44.9,1.6-82.4,18.3-112.4,49.9-30,31.7-45.1,69.6-45.1,113.6v322.2h193.6Z"/>
    <path class="st0" d="M5907.5,2286.9c-25.7,0-47.9-9.2-66.7-27.6-18.9-18.4-28.3-40.9-28.3-67.4v-574.7h-316.2v574.7c0,26.5-9.2,48.9-27.7,67.4-18.4,18.4-40.5,27.6-66.1,27.6s-48.9-9.2-67.4-27.6c-18.4-18.4-27.6-40.9-27.6-67.4v-1055.7c0-26.4,9.2-48.9,27.6-67.3,18.4-18.4,40.9-27.7,67.4-27.7s47.7,9.2,66.1,27.7c18.4,18.4,27.7,40.9,27.7,67.3v292.2h316.2v-292.2c0-26.4,9.4-48.9,28.3-67.3,18.8-18.4,41.1-27.7,66.7-27.7s48.9,9.2,67.3,27.7c18.4,18.4,27.7,40.9,27.7,67.3v1055.7c0,26.5-9.2,48.9-27.7,67.4-18.4,18.4-40.9,27.6-67.3,27.6Z"/>
    <path class="st0" d="M6528.9,2286.9h-252.5c-26.5,0-48.9-9.2-67.4-27.6-18.4-18.4-27.6-40.9-27.6-67.4v-1055.7c0-26.4,9.2-48.9,27.6-67.3,18.4-18.4,40.9-27.7,67.4-27.7s47.7,9.2,66.1,27.7c18.4,18.4,27.7,40.9,27.7,67.3v365.5c20.8-28.9,45.3-48.3,73.3-58.3,28.1-10,56.5-15,85.4-15,96.2,0,178.1,33.9,245.9,101.6,67.7,67.7,101.6,149.7,101.6,245.9v163.5c0,67.3-17.2,128.2-51.7,182.8-34.5,54.5-80.5,96.6-138.3,126.3-48.1,25.6-100.6,38.5-157.5,38.5ZM6528.9,2098.1c43.3,0,80.3-15.4,111.2-46.3s46.3-68.3,46.3-112.4v-163.5c0-43.3-15.4-80.5-46.3-111.8-30.9-31.3-67.9-46.9-111.2-46.9s-81.6,15.6-112.4,46.9c-30.9,31.3-46.3,68.5-46.3,111.8v322.2h158.7ZM7102.4,2286.9c-26.5,0-48.9-9.2-67.3-27.6s-27.6-40.9-27.6-67.4v-1055.7c0-26.4,9.2-48.9,27.6-67.3,18.4-18.4,40.9-27.7,67.3-27.7s47.7,9.2,66.1,27.7c18.4,18.4,27.7,40.9,27.7,67.3v1055.7c0,26.5-9.2,48.9-27.7,67.4-18.4,18.4-40.5,27.6-66.1,27.6Z"/>
    <path class="st0" d="M7975,2286.9c-16.9,0-36.1-7.4-57.7-22.2-21.6-14.8-33.2-34.3-34.9-58.3-44.1,53.7-97.4,80.6-159.9,80.6s-120.1-15.2-172.5-45.7c-52.5-30.5-94.8-72.1-126.9-125s-48.1-111.8-48.1-176.8v-803.2c0-26.4,9.2-48.9,27.6-67.3,18.4-18.4,40.9-27.7,67.4-27.7s62.1,15.2,80.5,45.7c8.8,14.4,13.2,30.9,13.2,49.3v803.2c0,44.1,15.4,81.6,46.3,112.4,30.8,30.9,68.3,46.3,112.4,46.3s80.3-15.4,111.2-46.3c30.8-30.8,46.3-68.3,46.3-112.4v-803.2c0-18.4,4.8-34.9,14.4-49.3,19.2-30.5,46.1-45.7,80.6-45.7s48.9,9.2,67.3,27.7c18.4,18.4,27.7,40.9,27.7,67.3v1055.7c0,26.5-9.2,48.9-27.7,67.4-18.4,18.4-40.9,27.6-67.3,27.6ZM7827.1,826h-209.2c-25.7,0-47.7-9.2-66.1-27.6-18.4-18.4-27.6-40.9-27.6-67.3s9.2-47.7,27.6-66.1c18.4-18.4,40.5-27.7,66.1-27.7h209.2c25.7,0,47.7,9.2,66.1,27.7,18.4,18.4,27.7,40.5,27.7,66.1s-9.2,48.9-27.7,67.3c-18.4,18.4-40.5,27.6-66.1,27.6Z"/>
    <path class="st0" d="M8893.2,2286.9c-26.5,0-48.9-9.2-67.4-27.6s-27.6-40.9-27.6-67.4v-1056.8c0-25.6,9.2-47.7,27.6-66.1,18.4-18.4,40.9-27.7,67.4-27.7s47.7,9.2,66.1,27.7c18.4,18.4,27.7,40.5,27.7,66.1v293.4h139.5l121.4-325.9c19.2-40.1,47.7-60.1,85.4-60.1s23.2,1.6,36.1,4.8c19.2,7.2,34.3,19.1,45.1,35.5,10.8,16.4,16.2,34.3,16.2,53.5s-2,21.3-6,32.5l-131.1,354.7,235.7,636.1c3.2,12.8,4.8,24.5,4.8,34.9,0,37.7-20,66.6-60.1,86.6-12.8,3.2-24.5,4.8-34.9,4.8-38.5,0-67.3-20.4-86.6-61.3l-226-607.2h-139.5v574.7c0,26.5-9.2,48.9-27.7,67.4s-40.5,27.6-66.1,27.6Z"/>
    <path class="st0" d="M9988.2,2286.9c-96.2,0-178.2-33.8-245.9-101.6s-101.6-149.7-101.6-245.9v-550.7c0-96.2,33.8-178.1,101.6-245.9,67.7-67.7,149.7-101.6,245.9-101.6s177.1,33.9,245.2,101.6c68.1,67.7,102.2,149.7,102.2,245.9v550.7c0,96.2-34.1,178.2-102.2,245.9-68.1,67.7-149.9,101.6-245.2,101.6ZM9988.2,2098.1c43.3,0,80.3-15.4,111.2-46.3s46.3-68.3,46.3-112.4v-550.7c0-44.1-15.4-81.5-46.3-112.4-30.9-30.9-67.9-46.3-111.2-46.3s-81.6,15.4-112.4,46.3c-30.9,30.9-46.3,68.3-46.3,112.4v550.7c0,44.1,15.4,81.6,46.3,112.4,30.8,30.9,68.3,46.3,112.4,46.3Z"/>
    <path class="st0" d="M10814,2286.9c-26.5,0-48.9-9.2-67.4-27.6s-27.6-40.9-27.6-67.4v-961.9h-157.5c-26.5,0-48.9-9.2-67.4-27.6-18.4-18.4-27.6-40.5-27.6-66.1s9.2-48.9,27.6-67.3c18.5-18.4,40.9-27.7,67.4-27.7h505c26.4,0,48.9,9.2,67.3,27.7,18.4,18.4,27.7,40.9,27.7,67.3s-9.2,47.7-27.7,66.1c-18.4,18.4-40.9,27.6-67.3,27.6h-158.7v961.9c0,26.5-9.2,48.9-27.7,67.4s-40.5,27.6-66.1,27.6Z"/>
  </g>
</svg>