<svg width="14" height="13" viewBox="0 0 14 13" fill="none" xmlns="http://www.w3.org/2000/svg">
<path d="M7.39628 6.63467L7.53518 6.45282C7.54133 6.44485 8.15162 5.64874 8.84519 4.9686C9.26206 4.55993 9.74892 4.21486 10.1056 3.99836C10.0745 4.02404 10.0428 4.04997 10.0113 4.07581C9.65252 4.37028 9.206 4.73674 8.90415 5.03506C8.21419 5.71679 7.62588 6.56309 7.62 6.57156L7.50778 6.73377L7.71278 6.70281C8.01634 6.65699 8.42127 6.62443 8.89004 6.58683C10.2365 6.47875 11.9123 6.34423 12.7878 5.78384C13.6109 5.25693 14.055 4.35937 13.8442 3.64952C13.7322 3.27307 13.3342 2.63397 11.9289 2.52312C11.9718 1.29769 11.326 0.921913 10.931 0.806948C10.077 0.558137 8.90831 1.06877 8.32506 1.94485L8.25579 2.06015C7.69641 2.99053 7.06234 4.0451 7.36771 6.41338L7.39628 6.63467Z" fill="#7B52AB"/>
<path d="M2.10317 5.91499L2.22751 5.97936C3.04967 6.40506 3.96145 6.87726 5.67024 6.87726C6.04533 6.87726 6.45912 6.85452 6.91849 6.8035L7.15695 6.77698L6.96099 6.64808C6.9524 6.64238 6.09416 6.07569 5.36161 5.43231C4.92124 5.04562 4.54958 4.59399 4.31628 4.26294C4.34377 4.2918 4.37162 4.32101 4.39929 4.35004C4.71669 4.68311 5.11167 5.09757 5.43323 5.37776C6.16786 6.01796 7.07981 6.56392 7.08895 6.56937L7.26374 6.67351L7.23037 6.48319C7.18091 6.20148 7.14592 5.82562 7.10531 5.39035C6.98884 4.14092 6.84389 2.58604 6.24011 1.77382C5.67241 1.01002 4.70484 0.597904 3.9402 0.793428C3.53454 0.897316 2.84585 1.26663 2.7264 2.57069C1.4058 2.5299 1.00105 3.13024 0.877078 3.49678C0.609233 4.28887 1.15921 5.37374 2.10317 5.91499Z" fill="#7B52AB"/>
<path d="M7.29301 6.99709L7.15412 7.17894C7.14797 7.18683 6.53741 7.98336 5.84401 8.66325C5.42733 9.07192 4.94065 9.41681 4.58383 9.63332C4.61511 9.60764 4.64676 9.58179 4.67823 9.55578C5.03705 9.2614 5.48348 8.89502 5.78524 8.59678C6.47519 7.91505 7.06342 7.06876 7.0693 7.06028L7.18152 6.89807L6.97652 6.92904C6.67305 6.97485 6.26812 7.00741 5.79925 7.04501C4.45271 7.15309 2.77701 7.28769 1.90168 7.84809C1.07852 8.37491 0.634254 9.27248 0.84522 9.98224C0.957168 10.3587 1.35514 10.9978 2.76037 11.1086C2.71751 12.3341 3.36334 12.7098 3.75823 12.825C3.90454 12.8674 4.05998 12.8877 4.22031 12.8877C4.99527 12.8877 5.88082 12.413 6.36415 11.6871L6.43333 11.5719C6.99289 10.6415 7.62714 9.58683 7.32159 7.21838L7.29301 6.99709Z" fill="#7B52AB"/>
<path d="M12.586 7.71685L12.4623 7.6529C11.4596 7.13346 10.3226 6.54496 7.77067 6.82835L7.53221 6.85486L7.72816 6.98376C7.73676 6.98946 8.59509 7.55607 9.32754 8.19953C9.76792 8.58622 10.1396 9.03786 10.3729 9.36882C10.3454 9.34012 10.3177 9.31109 10.2902 9.28222C9.97283 8.9489 9.57766 8.53436 9.25593 8.25408C8.5213 7.61397 7.60943 7.06793 7.6003 7.06247L7.42551 6.95833L7.45887 7.14857C7.50825 7.43019 7.54333 7.80597 7.58384 8.24116C7.70031 9.49067 7.84527 11.0458 8.44914 11.8581C8.92207 12.4945 9.67243 12.8869 10.3521 12.8868C10.4881 12.8868 10.6214 12.8711 10.7491 12.8384C11.1547 12.7345 11.8434 12.3653 11.9628 11.0612C13.2899 11.1035 13.6883 10.5017 13.8122 10.1351C14.08 9.34298 13.5299 8.25811 12.586 7.71685Z" fill="#7B52AB"/>
</svg>
