<?xml version="1.0" encoding="UTF-8"?>
<svg id="Layer_2" data-name="Layer 2" xmlns="http://www.w3.org/2000/svg" viewBox="0 0 522.75 171.57">
  <defs>
    <style>
      .cls-1 {
        font-family: Phenomena-Bold, Phenomena;
        font-size: 32px;
        font-weight: 700;
      }

      .cls-1, .cls-2, .cls-3 {
        fill: #1a890a;
      }

      .cls-4 {
        letter-spacing: 0em;
      }

      .cls-5 {
        fill: #2dd50d;
      }

      .cls-5, .cls-3, .cls-6, .cls-7 {
        fill-rule: evenodd;
      }

      .cls-8 {
        letter-spacing: -.02em;
      }

      .cls-9 {
        letter-spacing: -.01em;
      }

      .cls-10 {
        letter-spacing: -.01em;
      }

      .cls-6 {
        fill: #adfe98;
      }

      .cls-11 {
        letter-spacing: 0em;
      }

      .cls-12 {
        letter-spacing: 0em;
      }

      .cls-7 {
        fill: #1cab05;
      }
    </style>
  </defs>
  <g id="Layer_1-2" data-name="Layer 1">
    <path class="cls-3" d="M.5,93.1c-.06-.73.37-1.09,1.04-1.09l5.57.03c.61,0,.96.37,1.02,1.09.23,2.24,1.5,3.52,3.49,3.53,2.42.01,3.76-1.62,3.77-3.98l.02-3.21c.01-2.48-1.31-4.25-3.79-4.26l-3.93-.02c-.67,0-1.03-.43-1.02-1.09l.02-4.6c0-.72.37-1.09,1.04-1.08l3.51.02c2.12.01,3.21-1.62,3.23-3.8v-3.88c.03-2.18-1.12-3.57-2.87-3.59-1.7,0-2.67,1.26-2.86,3.92-.07.73-.49,1.09-1.16,1.09l-5.45-.03c-.66,0-1.03-.37-1.02-1.09.46-6.6,4.53-10.88,10.53-10.85,6.23.03,10.39,4.65,10.35,11.43v2.3c-.03,3.15-1.19,5.87-3.13,7.49,2.77,1.65,4.21,4.8,4.2,8.19v2.6c-.04,6.9-4.43,11.48-11.63,11.44-6.41-.03-10.51-4.16-10.91-10.58Z"/>
    <path class="cls-3" d="M23.36,109.38l.05-9.87c0-1.82,1.04-2.9,2.5-3.86,2.12-1.26,2.98-3.56,3.02-11.73l.06-11.93c.03-6.66,4.47-11.24,11.01-11.2l6.66.03c2.24.01,3.44,1.29,3.43,3.53l-.15,31.66.12.55c2.24.01,3.56,1.65,3.55,4.19l-.04,8.78c0,.67-.37,1.09-1.03,1.09l-5.27-.03c-.67,0-1.09-.43-1.09-1.09l.03-5.99-15.5-.07-.03,5.99c0,.67-.37,1.09-1.03,1.09l-5.27-.03c-.67,0-1.03-.42-1.03-1.09ZM42.43,96.51l.14-28.69h-2.42c-2.18-.02-3.52,1.73-3.53,4.15l-.06,13.62c-.03,6.24-.77,9.26-2.96,10.88l8.84.04Z"/>
    <path class="cls-3" d="M54.98,92.64l.1-20.58c.03-6.96,4.59-11.54,11.19-11.51,6.6.03,11.06,4.65,11.02,11.43l-.1,20.94c-.03,6.78-4.53,11.36-11.13,11.33-6.6-.03-11.11-4.65-11.08-11.61ZM69.57,93.43l.1-22.03c.01-2.3-1.31-3.82-3.43-3.83-2.12,0-3.52,1.5-3.53,3.98l-.11,21.67c-.01,2.48,1.38,3.94,3.49,3.95,2.12,0,3.46-1.44,3.47-3.74Z"/>
    <path class="cls-3" d="M82.05,102.57l.15-30.51c.03-6.84,4.29-11.48,10.71-11.45,6.6.03,11,4.71,10.96,11.55l-.03,5.75c-.03,6.72-4.35,11.18-10.89,11.15l-3.27-.02-.07,13.56c0,.73-.37,1.09-1.03,1.09l-5.45-.03c-.73,0-1.09-.37-1.09-1.09ZM92.5,82.1c2.42.01,3.7-1.32,3.71-3.98l.03-6.54c.01-2.36-1.19-3.82-3.25-3.83-1.93-.01-3.21,1.44-3.23,3.8l-.05,10.53,2.79.02Z"/>
    <path class="cls-3" d="M107.22,92.89l.1-20.58c.03-6.96,4.6-11.54,11.19-11.51,6.6.03,11.06,4.65,11.02,11.43l-.1,20.94c-.03,6.78-4.54,11.36-11.13,11.33-6.6-.03-11.12-4.65-11.08-11.62ZM121.8,93.68l.11-22.03c.01-2.3-1.31-3.82-3.43-3.83-2.12,0-3.51,1.5-3.53,3.98l-.1,21.67c-.01,2.48,1.37,3.94,3.49,3.95,2.12,0,3.46-1.44,3.47-3.74Z"/>
    <path class="cls-3" d="M156.02,90.28v2.54c-.04,6.96-4.43,11.42-10.84,11.39l-7.69-.04c-1.82,0-3.2-1.35-3.2-3.22l.14-28.81c.03-6.78,4.29-11.24,10.47-11.21,6.3.03,10.51,4.53,10.48,11.31v2.42c.04,3.15-1.19,5.75-3.25,7.43,2.47,1.89,3.91,4.74,3.89,8.19ZM148.33,90c.01-2.54-1.19-4.06-3.25-4.08h-3.15s-.06,11.37-.06,11.37h3.15c2.06.02,3.27-1.42,3.29-3.91l.02-3.39ZM141.97,79.19h2.91c1.82.02,2.91-1.37,2.92-3.73l.02-3.93c.01-2.18-1.13-3.58-3.01-3.59-1.76-.01-2.79,1.38-2.8,3.56l-.04,7.69Z"/>
    <path class="cls-3" d="M160.39,100.36l.18-38.38c0-.67.37-1.04,1.09-1.03l5.39.02c.67,0,1.09.37,1.09,1.04l-.07,15.13,3.39.02c6.48.03,10.45,4.62,10.42,11.83l-.02,3.23c-.04,7.2-3.99,11.76-10.53,11.73l-7.45-.04c-2.3-.01-3.5-1.3-3.5-3.56ZM170.82,96.88c2.24.01,3.46-1.75,3.47-3.89l.02-4.76c0-2.2-1.19-4.04-3.43-4.04l-2.84-.02-.06,12.69h2.84ZM185.01,102.68l.2-40.76c0-.67.37-1.03,1.03-1.03l5.44.03c.67,0,1.03.37,1.03,1.04l-.19,40.76c0,.73-.37,1.09-1.03,1.09l-5.45-.02c-.67,0-1.03-.37-1.03-1.11Z"/>
    <path class="cls-3" d="M212.93,61.92l5.39.03c.67,0,1.09.37,1.09,1.04l-.18,38.43c-.01,2.06-1.17,3.14-3.22,3.13l-7.2-.03c-7.51-.04-11.05-5.2-11.02-11.98l.14-29.66c0-.67.37-1.03,1.09-1.02l5.51.03c.67,0,1.03.37,1.02,1.04l-.14,29.9c-.02,2.79,1.37,4.73,3.61,4.74h2.66s.16-34.61.16-34.61c0-.66.37-1.03,1.09-1.02Z"/>
    <path class="cls-3" d="M201.42,51.57c-.06-.73.37-1.15,1.09-1.14h2.73c.66.02.91.38,1.14.98.3.97,1.14,1.52,2.35,1.53,1.21,0,2.06-.54,2.37-1.5.24-.6.49-.96,1.09-.96l2.78.02c.66,0,1.09.43,1.08,1.16-.5,3.75-3.3,6.22-7.36,6.2-4.05-.02-6.83-2.52-7.29-6.27Z"/>
    <path class="cls-3" d="M351.64,103.02l-.04-30.7c0-6.88,4.23-11.52,10.67-11.43,6.62.09,11.05,4.84,11.06,11.72v5.79c.02,6.76-4.29,11.21-10.84,11.12l-3.28-.04.02,13.65c0,.73-.36,1.09-1.03,1.08l-5.46-.07c-.73,0-1.09-.38-1.09-1.11ZM362,82.51c2.43.04,3.7-1.29,3.7-3.97v-6.58c-.01-2.38-1.23-3.85-3.29-3.88-1.94-.03-3.21,1.42-3.21,3.79l.02,10.6,2.79.03Z"/>
    <path class="cls-3" d="M377.32,92.28l.27-20.16c.09-6.71,4.51-11.26,11.05-11.17l6.36.08c.66.01,1.08.38,1.07,1.05l-.07,4.84c0,.73-.44,1.09-1.1,1.07l-5.45-.07c-2.6-.04-4.2,1.76-4.24,4.55l-.09,6.29,8.11.11c.73.01,1.08.44,1.07,1.11l-.06,4.6c-.01.73-.38,1.09-1.1,1.08l-8.11-.11-.09,6.66c-.04,2.79,1.51,4.62,4.11,4.66l5.45.07c.66,0,1.08.38,1.07,1.04l-.07,4.9c0,.66-.44,1.02-1.1,1.02l-6.36-.09c-6.54-.09-10.83-4.75-10.74-11.53Z"/>
    <path class="cls-3" d="M400.05,100.76l.38-28.02c.09-6.9,4.88-11.56,11.84-11.46l7.02.09c.6.01,1.08.44,1.07,1.05l-.06,4.84c-.01.6-.5,1.08-1.1,1.07l-7.02-.09c-2.48-.03-4.14,1.76-4.18,4.6l-.07,5.27,3.45.05c7.14.1,10.46,5.47,10.37,11.94l-.03,2.42c-.1,7.5-3.55,11.7-10.69,11.6l-7.81-.11c-2.05-.03-3.19-1.19-3.16-3.25ZM410.57,97.14c2.24.03,3.47-1.83,3.51-4.73l.04-2.42c.04-2.9-1.15-4.86-3.39-4.89l-2.9-.04-.16,12.04,2.91.04Z"/>
    <path class="cls-3" d="M425.73,92.73l.28-20.49c.09-6.83,4.59-11.45,11.23-11.36l6.46.08c.68.01,1.11.39,1.09,1.06l-.07,4.92c0,.74-.44,1.1-1.12,1.09l-5.54-.08c-2.65-.03-4.27,1.79-4.31,4.62l-.09,6.4,8.25.11c.74.01,1.1.45,1.09,1.12l-.06,4.68c-.01.74-.39,1.1-1.12,1.09l-8.25-.11-.09,6.77c-.04,2.83,1.54,4.69,4.18,4.73l5.54.08c.68,0,1.11.38,1.09,1.06l-.07,4.99c0,.68-.44,1.04-1.12,1.03l-6.46-.09c-6.65-.09-11.02-4.82-10.92-11.72ZM429.15,53.44c.03-1.91,1.27-3.18,3.25-3.16,1.84.02,3.12,1.33,3.09,3.24-.03,1.91-1.34,3.18-3.18,3.16-1.97-.03-3.18-1.34-3.16-3.24ZM437.64,53.55c.03-1.91,1.34-3.18,3.25-3.16,1.91.03,3.18,1.34,3.16,3.24-.03,1.91-1.34,3.18-3.25,3.16-1.91-.02-3.18-1.33-3.16-3.24Z"/>
    <path class="cls-3" d="M463.68,61.06h5.45c.66-.01,1.03.36,1.02,1.04l-.2,40.98c0,.74-.37,1.11-1.03,1.11h-5.45c-.66.01-1.03-.36-1.02-1.1l.08-17.13-6.11.02-.08,17.13c0,.74-.43,1.11-1.09,1.11h-5.39c-.72.01-1.09-.35-1.08-1.1l.19-40.98c0-.68.37-1.05,1.1-1.05h5.39c.66-.01,1.09.36,1.08,1.04l-.08,16.76h6.11s.08-16.77.08-16.77c0-.68.37-1.05,1.04-1.05Z"/>
    <path class="cls-3" d="M474.17,92.44l-.03-20.28c0-6.86,4.52-11.33,11.12-11.25,6.6.09,11.09,4.68,11.1,11.36l.03,20.64c0,6.68-4.46,11.16-11.06,11.07-6.6-.09-11.15-4.68-11.16-11.54ZM488.76,93.35l-.03-21.72c0-2.27-1.34-3.78-3.46-3.8-2.12-.03-3.51,1.45-3.5,3.89l.03,21.36c0,2.45,1.4,3.9,3.52,3.92,2.12.03,3.45-1.39,3.45-3.65Z"/>
    <path class="cls-3" d="M500.37,103.04l.54-41.07c0-.68.38-1.04,1.1-1.04l5.39.07c.67,0,1.09.39,1.07,1.07l-.22,17.1,3.21.04,3.67-17.18c.13-.68.62-.92,1.22-.91l5.39.08c.79,0,1.14.51.95,1.18l-4.73,19.21c2.76,1.83,4.11,5.3,4.05,9.44l-.16,12.29c0,.74-.44,1.1-1.1,1.1l-5.51-.08c-.67,0-1.02-.38-1.02-1.12l.16-12.53c.04-2.84-1.21-4.34-3.69-4.37l-2.54-.03-.22,16.85c-.01.74-.44,1.11-1.11,1.1l-5.39-.07c-.73-.01-1.09-.39-1.07-1.12Z"/>
    <path class="cls-2" d="M1,120.7h247.21c.51,0,.92.41.92.92v4.38c0,.51-.41.92-.92.92H1c-.51,0-.92-.41-.92-.92v-4.38c0-.51.41-.92.92-.92Z"/>
    <path class="cls-3" d="M521.26,126.92h-199.63c-.5,0-.92-.41-.92-.92v-4.38c0-.5.41-.92.92-.92h199.63c.5,0,.92.41.92.92v4.38c0,.51-.41.92-.92.92Z"/>
    <path class="cls-3" d="M220.21,44.3H.92c-.5,0-.92-.41-.92-.92v-4.38c0-.51.41-.92.92-.92h219.29c.5,0,.92.41.92.92v4.38c0,.51-.41.92-.92.92Z"/>
    <path class="cls-3" d="M521.45,44.3h-168.91c-.5,0-.91-.41-.91-.92v-4.38c0-.51.41-.92.91-.92h168.91c.5,0,.91.41.91.92v4.38c0,.51-.41.92-.91.92Z"/>
    <path class="cls-7" d="M331.8,46.9c-5.41-5.41-12.59-8.38-20.23-8.38s-14.83,2.97-20.24,8.38l-2.66,2.66-2.66-2.66c-5.41-5.41-12.59-8.38-20.24-8.38s-14.83,2.97-20.23,8.38c-11.16,11.16-11.16,29.32,0,40.48l39.98,39.99c.65.66,1.46,1.06,2.32,1.21.28.06.57.09.86.09,1.13,0,2.27-.43,3.12-1.3l39.98-39.99c11.16-11.16,11.16-29.32,0-40.48ZM325.55,81.12l-36.89,36.89-36.88-36.89c-7.71-7.71-7.71-20.26,0-27.97,3.73-3.73,8.71-5.79,13.98-5.79s10.25,2.05,13.98,5.79l5.79,5.79c1.66,1.66,4.59,1.66,6.25,0l5.79-5.79c3.73-3.73,8.7-5.79,13.98-5.79s10.25,2.05,13.98,5.79c7.71,7.72,7.71,20.26,0,27.97Z"/>
    <path class="cls-6" d="M288.66,118.02l-36.88-36.89c-.85-.85-1.61-1.77-2.27-2.72l35.93,35.95,38.7-38.71c4.16-4.16,6.18-9.66,6.06-15.12,2.47,6.97.91,15.05-4.65,20.61l-36.89,36.89ZM282.95,124.81c-.29-.18-.57-.4-.82-.65l-41.94-41.96c-5.82-5.82-8.74-13.44-8.78-21.08v-.3c.04-7.64,2.96-15.27,8.78-21.08,5.67-5.67,13.21-8.79,21.23-8.79s15.55,3.12,21.23,8.79l2.79,2.79,2.79-2.79c5.67-5.67,13.21-8.79,21.23-8.79s15.55,3.12,21.23,8.79c5.82,5.82,8.75,13.46,8.78,21.1-1.14-5.11-3.7-9.97-7.68-13.94-5.41-5.41-12.59-8.38-20.23-8.38s-14.83,2.97-20.24,8.38l-2.66,2.66-2.66-2.66c-5.41-5.41-12.59-8.38-20.24-8.38s-14.83,2.97-20.23,8.38c-11.16,11.16-11.16,29.32,0,40.48l37.42,37.43Z"/>
    <path class="cls-5" d="M249.51,78.4c.66.96,1.42,1.87,2.27,2.72l36.88,36.89,36.89-36.89c5.56-5.56,7.11-13.65,4.65-20.61-.11-5.16-2.13-10.29-6.06-14.22-3.92-3.92-9.13-6.07-14.67-6.07s-10.76,2.15-14.68,6.07l-6.07,6.08c-.87.87-2.07,1.3-3.28,1.3s-2.41-.44-3.28-1.3l-6.07-6.08c-3.92-3.92-9.13-6.07-14.66-6.07s-10.75,2.15-14.67,6.07c-8.09,8.09-8.09,21.25,0,29.34l2.76,2.76ZM285.46,125.51c-.3,0-.6-.03-.9-.09-.56-.1-1.11-.31-1.61-.62l-37.42-37.43c-11.16-11.16-11.16-29.32,0-40.48,5.41-5.41,12.59-8.38,20.23-8.38s14.83,2.97,20.24,8.38l2.66,2.66,2.66-2.66c5.41-5.41,12.59-8.38,20.24-8.38s14.83,2.97,20.23,8.38c3.97,3.97,6.53,8.83,7.68,13.94.03,7.73-2.89,15.47-8.78,21.36l-41.95,41.96c-.9.91-2.09,1.36-3.28,1.36Z"/>
    <path class="cls-3" d="M266.3,96.25c-.15,1.14-.3,2.28-.46,3.42-.22,1.59-.59,3.19-.63,4.79-.04,1.33.28,2.67.48,4.01.12.83.38,1.65.49,2.49.17,1.26.09,2.45-.68,3.59-.32.48-.28,1.22-.37,1.85-.1.75-.04,1.55-.28,2.25-.38,1.08-1.83,1.6-2.96,1.23-.68-.22-1.09-1.3-.88-2.4.09-.46.14-.98.38-1.38.81-1.36.2-2.69-.04-4.02-.06-.31-.38-.64-.66-.84-.8-.57-.93-1.36-1.06-2.28-.17-1.18-.66-2.3-.98-3.46-.21-.76-.51-1.54-.52-2.31-.05-3.39.16-6.76,1.01-10.06.24-.93-.04-1.62-.99-1.9-.81-.23-1.16-.79-1.38-1.55-.56-1.89-1.21-3.73-2.12-5.52-.64-1.26-.63-3.04-.41-4.52.74-4.85,2.27-9.5,4.37-13.93.86-1.8,2.42-2.78,4.4-3.14,1.25-.23,2.5-.49,3.72-.86,1.08-.32,1.41-1.07.99-2.12-.43-1.1-.65-2.15.03-3.24.11-.19.04-.5.03-.76-.08-1.64.88-2.85,2.48-3.25,3.36-.83,6.33,1.77,5.35,5.3-.36,1.3-.71,2.61-1.19,3.87-.23.62-.74,1.15-1.27,1.93.46.33.98.81,1.59,1.15,1.38.75,2.18,1.78,2.42,3.42.19,1.26.88,2.44,1.29,3.68,1.18,3.48,1.2,7.16,1.75,10.74.29,1.86.02,3.78.81,5.59.19.45-.05,1.07-.07,1.62-.05,1.23-.08,2.47-.11,3.7-.02.84.43,1.77-.49,2.45-.11.08-.13.33-.11.5.07,1.02,1.75,3.03,2.76,3.12.47.04,1.14-.17,1.41-.52.3-.37.46-1.09.32-1.53-.59-1.82.96-3.99,2.86-4.12,1.52-.1,2.63.41,3.24,1.7.35.74.31,1.66.46,2.5.09.51.2,1.01.32,1.51.19.76.66.8,1.25.44.15-.09.3-.22.4-.37.71-1.05,1.47-2.07,2.06-3.18.19-.35.03-1-.17-1.41-.69-1.46-.41-2.01.43-3.38.84-1.36,1.43-2.99,1.1-4.69-.38-1.95-.11-3.88.07-5.81.23-2.58.37-5.18.54-7.76.05-.73.03-1.47.07-2.19.05-.92.48-1.6,1.34-1.98,1.83-.8,2.76-2.38,3.42-4.12.45-1.2.67-2.48,1.05-3.7.29-.95.66-1.87,1.02-2.79.55-1.39,1.64-1.85,3.07-1.84,1.38.02,2.14.78,2.72,1.89.52,1.01,1.09,2,1.6,3.01.2.39.37.81.41,1.23.11,1.32.21,2.64.2,3.96-.01.96.41,1.72.72,2.58.48,1.34.57,2.83.83,4.26.25,1.33.51,2.66.76,3.98.05.25.19.54.11.74-.81,2.14-.21,4.22.19,6.31.03.14.08.35,0,.42-1.38,1.35.18,2.33.44,3.47.16.71.38,1.41.57,2.11.15.57.15,1.23.46,1.68.53.74.48,1.45.36,2.27-.2,1.37-.35,1.53-1.48,1.4-.12-.94-.1-1.85-.38-2.67-.53-1.58-1.22-3.11-1.96-4.93,0,.64-.04,1.04,0,1.43.28,2.18.84,4.35.81,6.51-.03,1.94.82,3.66.88,5.54.03,1.01.44,2.09-1.01,2.49-.14.04-.25.26-.34.42-1.45,2.46-2.78,5.02-4.39,7.38-1.39,2.04-1.08,3.83.12,5.71.1.15.19.31.29.47.58.98.73,1.92-.3,2.73.57.8,1.1,1.57,1.85,2.61-.78.04-1.22.09-1.66.08-1.75,0-3.15-.95-4.59-1.77-.16-.1-.34-.33-.35-.51-.04-.73-.13-1.49,0-2.19.23-1.27.21-2.32-.34-3.65-.83-1.99-1-4.27-1.31-6.45-.17-1.22-.03-2.49-.03-3.68-.12-.09-.17-.17-.23-.18-1.39-.09-1.86-.89-1.95-2.22-.24-3.66-.66-7.31-.84-10.98-.07-1.48.28-2.98.44-4.51-.8.21-1.28,1.1-1.09,2.04.17.89.45,1.72-.25,2.57-.2.24.1.9.19,1.37.15.72.09,1.23-.6,1.79-.57.47-1.07,1.45-1.03,2.18.16,2.75-1.18,4.68-3.11,6.32-.76.65-.94,1.27-.86,2.27.12,1.51-.13,3.05-.21,4.57-.07,1.23-.12,2.47-.18,3.7-.03.65-.04,1.31-.07,1.97-.04,1.05-.02,2.1-.14,3.14-.07.58-.32,1.13-.53,1.69-.13.36-.41.69-.45,1.05-.11,1-.84,1.17-1.58,1.12-.87-.06-.79-.7-.84-1.45-.09-1.58-.48-3.14-.93-4.73-.06.16-.22.35-.18.47.61,1.63-.23,2.99-.77,4.42-.28.74-.86.85-1.4.68-.34-.11-.75-.63-.78-1-.17-1.75-.75-3.36-1.39-4.99-.34-.85-.05-1.94-.1-2.92-.04-.79.05-1.66-.25-2.34-.93-2.07-.86-4.17-.37-6.26.24-1.03-.08-1.62-.92-1.93-1.61-.57-2.07-2.1-2.81-3.34-.53-.88-.69-2.01-.93-3.04-.15-.65-.35-1.35.35-1.92.17-.14.07-.61.09-.93-.11-.02-.23-.05-.34-.07-.17.45-.34.89-.51,1.34-.1,0-.19,0-.28.01-.71-1.65.09-3.45-.27-5.15-.81.28-1.86.34-2.35.89-.49.55-.62,1.62-.54,2.43.16,1.56.54,3.11.92,4.64.37,1.48.02,2.79-.55,4.16-.42,1.02-.76,2.16-.8,3.25-.14,4-.13,8.02-.17,12.02,0,.76-.1,1.36-.88,1.84-.65.4-1.04,1.16-.41,1.98.22.29.38.63.56.95.7,1.3.46,2.4-.63,2.91-1.34.62-2.88.16-3.33-1.15-.31-.91-1.35-1.63-.79-2.83.05-.11-.57-.5-.81-.81-.24-.32-.57-.74-.53-1.08.2-1.77.44-3.54.77-5.29.96-5.08.1-10.1-.43-15.14-.09-.8-.45-1.57-.68-2.35-.12,0-.25.02-.37.02ZM299.65,84.76c.27-.31.35-.37.38-.45.51-1.58,1.04-3.16,1.5-4.75.12-.42.02-.9.02-1.35l-.45-.07c-.46,2.11-.92,4.22-1.45,6.61ZM306.44,104.9c.07.65.13,1.22.2,1.89.34-.39.6-.65.81-.94.19-.27.34-.58.55-.95h-1.56Z"/>
    <path class="cls-3" d="M217.63,6.6v20.63h-2.52c-.58,0-1.09-.15-1.5-.43-.42-.29-.75-.69-.98-1.2-.23-.51-.35-1.11-.35-1.8V6.6c0-.14-.04-.24-.12-.32-.08-.08-.19-.12-.32-.12h-2.18c-.14,0-.25.04-.32.12-.08.08-.12.19-.12.32v17.16c0,.91.13,1.74.38,2.52.26.77.63,1.43,1.12,2,.5.57,1.11,1.02,1.84,1.33.73.32,1.56.48,2.51.48h4.25c.44,0,.78-.12,1.02-.35.23-.23.34-.57.34-1.01V6.6c0-.14-.04-.24-.12-.32-.08-.08-.19-.12-.33-.12h-2.14c-.16,0-.27.04-.35.12-.09.08-.12.19-.12.32ZM214.94,3.85c.75,0,1.41-.15,1.97-.42.56-.28,1.01-.66,1.35-1.17.34-.5.55-1.09.63-1.78,0-.17-.04-.29-.12-.37-.08-.07-.2-.11-.35-.11h-1.33c-.14,0-.24.03-.31.1-.08.07-.13.17-.16.31-.07.39-.25.7-.54.92-.29.22-.66.33-1.13.34-.46,0-.84-.11-1.11-.34-.28-.22-.45-.53-.52-.92-.05-.14-.11-.24-.2-.31-.08-.07-.18-.1-.32-.1h-1.33c-.14,0-.25.04-.34.12-.09.08-.12.2-.1.35.07.69.28,1.28.61,1.78.34.51.79.89,1.35,1.17.56.27,1.21.41,1.95.42ZM202.24,6.6v20.63h-2.52c-.58,0-1.09-.15-1.5-.43-.42-.29-.75-.69-.98-1.2-.23-.51-.35-1.11-.35-1.8V6.6c0-.14-.04-.24-.12-.32-.08-.08-.19-.12-.32-.12h-2.18c-.14,0-.24.04-.32.12-.08.08-.12.19-.12.32v17.16c0,.91.13,1.74.38,2.52.26.77.63,1.43,1.12,2,.5.57,1.11,1.02,1.84,1.33.73.32,1.56.48,2.51.48h4.26c.44,0,.78-.12,1.02-.35.23-.23.34-.57.34-1.01V6.6c0-.14-.04-.24-.12-.32-.08-.08-.19-.12-.32-.12h-2.15c-.15,0-.27.04-.35.12-.09.08-.12.19-.12.32ZM186.88,6.6v9.91h-5.24V6.6c0-.14-.04-.24-.12-.32-.08-.08-.19-.12-.32-.12h-2.15c-.16,0-.27.04-.35.12-.09.08-.12.19-.12.32v22.91c0,.16.04.27.12.35.08.09.19.12.35.12h2.15c.14,0,.24-.04.32-.12.08-.08.12-.2.12-.35v-10.18h5.24v10.18c0,.16.04.27.12.35.08.09.2.12.36.12h2.14c.14,0,.24-.04.32-.12.08-.08.12-.2.12-.35V6.6c0-.14-.04-.24-.12-.32-.08-.08-.18-.12-.32-.12h-2.14c-.16,0-.27.04-.36.12-.08.08-.12.19-.12.32ZM166.08,19.14v-7.18c0-1.03.25-1.82.73-2.39.48-.56,1.16-.84,2.03-.85.89,0,1.57.29,2.04.85.47.56.71,1.36.71,2.39v7.18h-5.51ZM163.46,30h2.18c.14,0,.25-.04.32-.12.08-.08.12-.2.12-.35v-7.56h5.51v7.56c0,.16.05.27.14.35.09.09.2.12.34.12h2.14c.15,0,.27-.04.35-.12.09-.08.12-.2.12-.35V12.08c0-1.26-.25-2.35-.74-3.29-.49-.94-1.17-1.66-2.04-2.18-.88-.52-1.9-.79-3.07-.79-1.18,0-2.2.27-3.07.79-.87.52-1.54,1.25-2.02,2.18-.48.94-.72,2.03-.73,3.29v17.43c0,.16.04.27.12.35.08.09.19.12.32.12ZM148.14,30h2.18c.15,0,.27-.04.35-.12.09-.08.12-.2.12-.35V9.02h5.24v20.5c0,.16.04.27.12.35.08.09.19.12.32.12h2.22c.14,0,.25-.04.32-.12.08-.08.12-.2.12-.35V7.97c0-.59-.16-1.03-.46-1.34-.31-.31-.75-.46-1.34-.46h-7.83c-.6,0-1.06.16-1.37.46-.31.31-.47.75-.47,1.34v21.55c0,.16.04.27.12.35.08.09.2.12.35.12ZM126.58,30h2.11c.15,0,.27-.04.33-.12.07-.08.11-.2.11-.35v-12.39c-.01-1.25-.04-2.46-.06-3.67-.02-1.21-.04-2.43-.08-3.65h.1c.19.77.4,1.57.62,2.39.23.82.45,1.61.67,2.38l2.49,7.8c.1.38.28.66.54.85.25.2.58.3.99.3h.85c.41,0,.74-.1,1-.3.25-.19.43-.48.53-.85l2.49-7.8c.24-.77.47-1.57.69-2.38.22-.82.43-1.61.63-2.39h.07c-.04,1.22-.06,2.44-.07,3.65-.02,1.21-.03,2.42-.03,3.67l-.04,12.39c0,.16.04.27.12.35.08.09.19.12.32.12h2.15c.13,0,.24-.04.32-.12.08-.08.12-.2.12-.35V7.49c0-.46-.12-.82-.35-1.06-.23-.24-.57-.37-1.01-.37h-2.01c-.37,0-.68.1-.91.3-.23.2-.4.5-.52.89l-2.66,8.41c-.21.67-.42,1.37-.64,2.1-.22.73-.41,1.44-.59,2.12h-.07c-.2-.69-.4-1.4-.62-2.12-.22-.73-.43-1.43-.64-2.1l-2.66-8.41c-.11-.39-.28-.69-.51-.89-.23-.2-.53-.3-.92-.3h-1.97c-.46,0-.81.12-1.05.37-.23.25-.35.6-.35,1.06v22.03c0,.16.04.27.12.35.08.09.2.12.35.12ZM116.6,27.48c-.58,0-1.09-.14-1.53-.41-.44-.27-.78-.66-1.02-1.17-.24-.5-.37-1.11-.37-1.82v-11.99c0-.71.13-1.32.37-1.82.25-.5.59-.89,1.02-1.17.44-.27.95-.41,1.53-.41.59,0,1.09.14,1.52.4.43.27.77.64,1.01,1.11.24.47.36,1.02.36,1.65v12.46c0,.63-.12,1.18-.36,1.65-.24.48-.57.84-1.01,1.11-.43.26-.94.4-1.52.4ZM116.6,30.34c.89,0,1.7-.16,2.43-.46.73-.3,1.36-.73,1.89-1.28.54-.55.94-1.2,1.23-1.95.29-.75.43-1.57.44-2.47v-12.19c0-.9-.14-1.72-.44-2.47-.29-.75-.7-1.39-1.23-1.95-.53-.55-1.16-.98-1.89-1.29-.73-.3-1.54-.45-2.43-.46-1.19,0-2.23.28-3.14.81-.9.54-1.6,1.28-2.11,2.24-.51.95-.77,2.07-.78,3.35v11.71c.01,1.28.27,2.4.78,3.35.51.96,1.21,1.7,2.11,2.24.9.53,1.95.8,3.14.81ZM96.45,30h2.14c.14,0,.25-.04.33-.12.08-.08.12-.2.12-.35v-10.08h2.49c.6,0,1.12.14,1.54.41.43.27.75.66.98,1.15.23.5.34,1.09.34,1.77v6.74c0,.16.04.27.12.35.08.09.2.12.35.12h2.14c.15,0,.27-.04.35-.12.09-.08.12-.2.12-.35v-6.67c0-.87-.11-1.66-.34-2.38-.23-.71-.57-1.34-1.01-1.87-.44-.53-.99-.93-1.64-1.23l3.13-10.69c.04-.16.01-.28-.05-.37-.07-.09-.19-.14-.36-.14h-2.15c-.12,0-.23.03-.32.09-.09.07-.16.16-.19.28l-2.79,10.04h-2.73V6.6c0-.14-.04-.24-.12-.32-.08-.08-.19-.12-.33-.12h-2.14c-.15,0-.27.04-.35.12-.09.08-.12.19-.12.32v22.91c0,.16.04.27.12.35.08.09.2.12.35.12ZM76.05,19.14v-7.18c0-1.03.25-1.82.73-2.39.48-.56,1.16-.84,2.03-.85.89,0,1.57.29,2.04.85.47.56.71,1.36.72,2.39v7.18h-5.52ZM73.43,30h2.18c.14,0,.25-.04.32-.12.08-.08.12-.2.12-.35v-7.56h5.52v7.56c0,.16.05.27.14.35.09.09.2.12.34.12h2.15c.15,0,.27-.04.35-.12.09-.08.12-.2.12-.35V12.08c0-1.26-.25-2.35-.74-3.29-.49-.94-1.17-1.66-2.04-2.18-.88-.52-1.9-.79-3.07-.79-1.18,0-2.2.27-3.07.79-.87.52-1.54,1.25-2.02,2.18-.48.94-.73,2.03-.73,3.29v17.43c0,.16.04.27.12.35.08.09.19.12.32.12ZM58.11,30h2.18c.15,0,.27-.04.35-.12.09-.08.12-.2.12-.35V9.02h5.24v20.5c0,.16.04.27.12.35.08.09.19.12.33.12h2.21c.14,0,.25-.04.32-.12.08-.08.12-.2.12-.35V7.97c0-.59-.16-1.03-.46-1.34-.31-.31-.75-.46-1.34-.46h-7.83c-.6,0-1.06.16-1.37.46-.31.31-.47.75-.47,1.34v21.55c0,.16.04.27.12.35.08.09.2.12.35.12ZM42.55,30h2.18c.15,0,.27-.04.35-.12.09-.08.12-.2.12-.35V9.02h5.25v20.5c0,.16.04.27.12.35.08.09.19.12.32.12h2.21c.13,0,.24-.04.32-.12.08-.08.12-.2.12-.35V7.97c0-.59-.16-1.03-.46-1.34-.31-.31-.75-.46-1.34-.46h-7.83c-.6,0-1.06.16-1.37.46-.31.31-.47.75-.47,1.34v21.55c0,.16.04.27.12.35.08.09.2.12.35.12ZM27.5,30.13h4.83c.9,0,1.7-.16,2.42-.47.72-.31,1.33-.75,1.84-1.31.51-.56.9-1.22,1.18-1.98.27-.76.41-1.59.41-2.5V6.6c0-.14-.04-.24-.12-.32-.08-.08-.19-.12-.32-.12h-2.18c-.13,0-.24.04-.32.12-.08.08-.12.19-.12.32v11.85h-2.52c-.57,0-1.07-.15-1.49-.43-.42-.29-.75-.68-.99-1.18-.23-.5-.35-1.07-.35-1.73V6.6c0-.14-.04-.24-.12-.32-.08-.08-.2-.12-.35-.12h-2.15c-.15,0-.27.04-.35.12-.08.08-.12.19-.12.32v8.45c0,.91.15,1.73.41,2.5.27.75.66,1.41,1.18,1.97.51.56,1.13.99,1.86,1.3.72.3,1.54.46,2.44.46h2.56v2.66c0,.66-.12,1.24-.36,1.74-.23.5-.56.89-.99,1.17-.43.28-.93.42-1.52.43h-4.77c-.14,0-.25.04-.33.12-.08.08-.12.2-.12.35v1.91c0,.16.04.27.12.35.08.09.19.12.33.12ZM16.33,18.56v-6.6c0-.66.11-1.24.33-1.73.21-.49.52-.87.92-1.14.4-.27.89-.41,1.44-.41s1.04.14,1.45.41c.41.27.72.65.94,1.14.22.49.33,1.06.33,1.73v3.68c0,.93-.25,1.65-.75,2.15-.5.51-1.19.77-2.08.78h-2.59ZM13.71,30h2.18c.14,0,.25-.04.33-.12.08-.08.12-.2.12-.35v-8.1h2.69c1.19-.01,2.21-.26,3.08-.75.87-.49,1.54-1.17,2.02-2.04.47-.88.71-1.9.72-3.06v-3.48c0-1.25-.25-2.34-.73-3.28-.48-.94-1.16-1.67-2.03-2.21-.88-.53-1.91-.79-3.09-.8-1.17.01-2.19.28-3.04.8-.85.54-1.51,1.27-1.98,2.21-.46.94-.7,2.04-.7,3.28v17.43c0,.16.04.27.12.35.08.09.18.12.32.12ZM1.48,30h2.18c.14,0,.24-.04.32-.12.08-.08.12-.2.12-.35V12.22c0-1.06.26-1.88.77-2.45.52-.57,1.27-.85,2.26-.86h3.41c.14,0,.24-.05.32-.14.08-.09.12-.2.12-.34v-1.91c0-.14-.04-.26-.12-.34-.08-.09-.19-.13-.32-.13h-3.47c-1.25,0-2.33.26-3.23.77-.9.5-1.58,1.23-2.07,2.17-.48.94-.73,2.06-.73,3.36v17.16c0,.16.04.27.12.35.08.09.19.12.32.12Z"/>
    <text class="cls-1" transform="translate(167.97 163.44)"><tspan class="cls-12" x="0" y="0">с</tspan><tspan x="12.22" y="0">ан</tspan><tspan class="cls-9" x="37.92" y="0">ат</tspan><tspan x="60.13" y="0">о</tspan><tspan class="cls-10" x="72.89" y="0">р</tspan><tspan x="85.5" y="0">ии и </tspan><tspan class="cls-11" x="138.72" y="0">к</tspan><tspan class="cls-4" x="151.29" y="0">уро</tspan><tspan class="cls-8" x="190.4" y="0">р</tspan><tspan x="202.88" y="0">ты</tspan></text>
  </g>
</svg>