<?xml version="1.0" encoding="UTF-8"?>
<svg id="Layer_1" data-name="Layer 1" xmlns="http://www.w3.org/2000/svg" viewBox="0 0 234.52 78.09">
  <defs>
    <style>
      .cls-1 {
        fill: #f48da3;
      }

      .cls-1, .cls-2, .cls-3, .cls-4, .cls-5 {
        fill-rule: evenodd;
      }

      .cls-2 {
        fill: #f6a7bb;
      }

      .cls-3 {
        fill: #fbd7e3;
      }

      .cls-4 {
        fill: #dd2f27;
      }

      .cls-5, .cls-6 {
        fill: #d12a27;
      }
    </style>
  </defs>
  <path class="cls-5" d="M.18,41.56c-.02-.33.17-.49.47-.49l2.5.04c.27,0,.43.17.46.49.09,1.01.66,1.59,1.55,1.6,1.09.02,1.7-.71,1.71-1.77l.02-1.44c.02-1.11-.57-1.91-1.68-1.93l-1.77-.02c-.3,0-.46-.2-.45-.49l.03-2.07c0-.33.17-.49.47-.48l1.57.02c.95.01,1.45-.72,1.46-1.7l.02-1.74c.01-.98-.5-1.61-1.28-1.62-.76,0-1.2.55-1.3,1.75-.03.32-.23.48-.52.48l-2.45-.03c-.3,0-.46-.17-.46-.5.23-2.96,2.08-4.86,4.77-4.83,2.8.04,4.65,2.13,4.61,5.17v1.03c-.03,1.41-.56,2.63-1.45,3.35,1.24.75,1.88,2.17,1.86,3.7l-.02,1.17c-.04,3.1-2.03,5.14-5.26,5.09-2.88-.04-4.7-1.91-4.85-4.79Z"/>
  <path class="cls-5" d="M10.38,48.96l.06-4.43c.01-.82.48-1.3,1.14-1.73.96-.56,1.36-1.59,1.4-5.25l.07-5.35c.04-2.99,2.05-5.03,4.98-4.99l2.99.04c1,.02,1.54.59,1.53,1.6l-.19,14.21.05.25c1,.02,1.59.75,1.58,1.9l-.05,3.94c0,.3-.17.49-.47.48l-2.36-.03c-.3,0-.49-.2-.48-.5l.04-2.69-6.96-.09-.04,2.69c0,.3-.17.49-.47.48l-2.37-.04c-.3,0-.46-.2-.45-.49ZM18.99,43.25l.18-12.88-1.09-.02c-.98-.01-1.59.77-1.6,1.85l-.08,6.11c-.04,2.8-.38,4.15-1.37,4.88l3.96.05Z"/>
  <path class="cls-5" d="M24.64,41.57l.12-9.24c.04-3.12,2.11-5.16,5.07-5.12,2.96.04,4.95,2.13,4.91,5.18l-.13,9.4c-.04,3.04-2.08,5.08-5.04,5.04-2.96-.04-4.97-2.13-4.93-5.26ZM31.18,41.98l.13-9.9c.01-1.03-.57-1.72-1.53-1.73-.95-.01-1.59.66-1.6,1.77l-.13,9.73c-.02,1.11.6,1.77,1.55,1.79.95.01,1.56-.63,1.57-1.66Z"/>
  <path class="cls-5" d="M36.75,46.13l.18-13.7c.04-3.07,1.97-5.14,4.85-5.1,2.96.04,4.92,2.16,4.88,5.23l-.03,2.58c-.04,3.02-2,5-4.93,4.96l-1.47-.02-.08,6.09c0,.33-.17.49-.47.48l-2.45-.03c-.32,0-.48-.17-.48-.49ZM41.52,36.98c1.09.01,1.66-.57,1.68-1.77l.04-2.93c.01-1.06-.52-1.72-1.44-1.73-.87-.01-1.45.63-1.47,1.7l-.06,4.73,1.25.02Z"/>
  <path class="cls-5" d="M48.09,41.88l.12-9.24c.04-3.12,2.11-5.16,5.07-5.12,2.96.04,4.95,2.13,4.9,5.18l-.12,9.4c-.04,3.04-2.08,5.08-5.04,5.04-2.96-.04-4.97-2.13-4.93-5.26ZM54.63,42.3l.13-9.89c.02-1.03-.57-1.72-1.52-1.73-.95-.01-1.59.66-1.6,1.77l-.13,9.73c-.02,1.11.6,1.77,1.55,1.79.95.02,1.56-.63,1.57-1.66Z"/>
  <path class="cls-5" d="M70.01,40.9l-.02,1.14c-.04,3.12-2.02,5.11-4.91,5.07l-3.45-.05c-.82,0-1.43-.62-1.42-1.46l.18-12.94c.04-3.04,1.97-5.03,4.74-4.99,2.82.03,4.7,2.07,4.66,5.12l-.02,1.09c0,1.41-.55,2.57-1.48,3.32,1.1.86,1.74,2.15,1.71,3.69ZM66.56,40.74c.02-1.14-.52-1.83-1.44-1.84l-1.41-.02-.07,5.11,1.41.02c.93.01,1.48-.63,1.49-1.75l.02-1.52ZM63.74,35.87l1.3.02c.82,0,1.31-.61,1.33-1.67l.02-1.77c.01-.98-.5-1.61-1.34-1.62-.79-.01-1.26.61-1.27,1.59l-.05,3.45Z"/>
  <path class="cls-5" d="M71.93,45.62l.23-17.09c0-.3.17-.46.49-.46l2.42.04c.3,0,.48.17.48.46l-.09,6.74,1.52.02c2.91.04,4.67,2.1,4.63,5.31l-.02,1.44c-.04,3.21-1.84,5.22-4.77,5.18l-3.34-.05c-1.04-.01-1.57-.59-1.55-1.6ZM76.62,44.11c1,.01,1.56-.77,1.57-1.72l.03-2.12c.01-.98-.52-1.8-1.53-1.82l-1.28-.02-.07,5.65,1.28.02ZM82.98,46.75l.24-18.15c0-.3.17-.46.47-.46l2.44.04c.3,0,.46.17.46.47l-.25,18.15c0,.32-.17.48-.47.48l-2.44-.03c-.3,0-.46-.17-.45-.5Z"/>
  <path class="cls-5" d="M95.67,28.39l2.42.03c.3,0,.49.17.48.47l-.23,17.25c-.01.93-.54,1.41-1.46,1.39l-3.23-.04c-3.37-.05-4.94-2.38-4.9-5.42l.18-13.31c0-.3.17-.46.5-.46l2.47.03c.3,0,.46.17.45.47l-.18,13.43c-.02,1.25.6,2.13,1.6,2.14l1.2.02.21-15.54c0-.3.17-.46.5-.45ZM90.54,23.7c-.02-.33.17-.52.5-.51l1.22.02c.3,0,.41.17.51.44.13.44.51.69,1.05.69.54,0,.93-.23,1.07-.66.11-.27.22-.43.5-.43l1.25.02c.3,0,.49.2.48.52-.24,1.68-1.51,2.78-3.33,2.75-1.82-.02-3.05-1.16-3.25-2.84Z"/>
  <path class="cls-5" d="M157.6,45.72l.18-13.7c.04-3.08,1.97-5.14,4.85-5.1,2.96.04,4.92,2.16,4.88,5.23l-.04,2.58c-.04,3.01-2,5-4.93,4.96l-1.47-.02-.08,6.09c0,.33-.17.49-.47.48l-2.44-.03c-.32,0-.48-.17-.48-.5ZM162.37,36.57c1.09.02,1.67-.58,1.68-1.77l.04-2.93c.02-1.06-.52-1.72-1.45-1.73-.87-.01-1.45.63-1.46,1.69l-.06,4.73,1.25.02Z"/>
  <path class="cls-5" d="M168.93,41.36l.12-9.05c.04-3.02,2.02-5.05,4.96-5.02l2.85.04c.3,0,.49.17.48.47l-.03,2.18c0,.32-.2.48-.5.48l-2.45-.03c-1.17-.02-1.89.79-1.9,2.04l-.04,2.82,3.64.05c.33,0,.49.2.48.5l-.03,2.07c0,.32-.17.48-.5.48l-3.64-.05-.04,2.99c-.02,1.25.68,2.08,1.85,2.09l2.44.03c.3,0,.49.17.49.47l-.03,2.2c0,.3-.2.46-.5.45l-2.85-.03c-2.93-.04-4.86-2.13-4.82-5.17Z"/>
  <path class="cls-5" d="M178.91,45.17l.17-12.58c.04-3.1,2.19-5.19,5.32-5.15l3.15.04c.27,0,.48.19.48.47l-.03,2.18c0,.27-.23.48-.5.48l-3.15-.04c-1.11-.02-1.86.79-1.88,2.07l-.03,2.37,1.55.02c3.21.04,4.7,2.46,4.66,5.36v1.09c-.06,3.37-1.6,5.25-4.81,5.21l-3.51-.05c-.92-.01-1.43-.54-1.42-1.46ZM183.64,43.55c1,.01,1.56-.82,1.58-2.13l.02-1.09c.02-1.3-.52-2.18-1.52-2.19l-1.31-.02-.07,5.41,1.3.02Z"/>
  <path class="cls-5" d="M190.11,41.65l.12-9.05c.04-3.02,2.02-5.05,4.96-5.02l2.85.04c.3,0,.49.17.48.47l-.03,2.18c0,.32-.2.48-.5.48l-2.45-.03c-1.17-.02-1.89.79-1.9,2.04l-.04,2.82,3.64.05c.33,0,.49.2.48.5l-.03,2.07c0,.32-.17.48-.5.48l-3.64-.05-.04,2.99c-.02,1.25.68,2.07,1.85,2.09l2.45.04c.3,0,.49.17.48.46l-.03,2.2c0,.3-.19.46-.49.46l-2.85-.04c-2.93-.04-4.86-2.13-4.82-5.17ZM191.61,24.3c.01-.84.56-1.41,1.43-1.39.82.01,1.38.59,1.37,1.43-.01.84-.59,1.41-1.41,1.4-.87-.01-1.4-.59-1.4-1.43ZM195.36,24.35c.01-.84.59-1.41,1.43-1.4.84.01,1.41.59,1.39,1.43-.01.84-.59,1.41-1.43,1.39-.84-.01-1.41-.59-1.4-1.43Z"/>
  <path class="cls-5" d="M207.06,27.85l2.44.04c.3,0,.46.17.46.46l-.25,18.07c0,.32-.17.48-.47.48l-2.45-.03c-.3,0-.46-.17-.45-.5l.1-7.55-2.75-.03-.1,7.55c0,.33-.2.49-.5.48l-2.42-.03c-.33,0-.48-.17-.48-.5l.24-18.07c0-.3.17-.46.5-.46l2.42.03c.3,0,.49.17.48.47l-.1,7.39,2.75.03.1-7.39c0-.3.17-.46.47-.46Z"/>
  <path class="cls-5" d="M212.11,42.05l.12-9.24c.04-3.12,2.11-5.16,5.07-5.12,2.96.04,4.94,2.13,4.9,5.18l-.12,9.4c-.04,3.04-2.08,5.08-5.04,5.04-2.96-.04-4.97-2.13-4.93-5.26ZM218.66,42.47l.14-9.89c.01-1.03-.58-1.72-1.53-1.73-.95-.01-1.59.66-1.6,1.77l-.13,9.73c-.02,1.11.6,1.78,1.55,1.79.95.01,1.56-.63,1.57-1.66Z"/>
  <path class="cls-5" d="M224.36,46.62l.24-18.07c0-.3.17-.46.5-.46l2.42.03c.3,0,.49.17.48.47l-.1,7.53,1.44.02,1.65-7.56c.06-.3.28-.4.55-.4l2.42.03c.35,0,.52.22.43.52l-2.12,8.45c1.24.8,1.84,2.34,1.82,4.16l-.07,5.41c0,.33-.2.49-.5.48l-2.47-.04c-.3,0-.46-.17-.46-.49l.07-5.52c.02-1.25-.54-1.91-1.66-1.92l-1.14-.02-.1,7.42c0,.32-.2.48-.5.48l-2.42-.03c-.33,0-.49-.17-.48-.5Z"/>
  <path class="cls-5" d="M111.4,56.56H.41c-.23,0-.41-.18-.41-.41v-1.97c0-.23.18-.41.41-.41h110.99c.23,0,.41.18.41.41v1.97c0,.23-.19.41-.41.41Z"/>
  <path class="cls-5" d="M233.99,56.56h-89.62c-.23,0-.41-.18-.41-.41v-1.97c0-.23.19-.41.41-.41h89.62c.23,0,.41.18.41.41v1.97c0,.23-.19.41-.41.41Z"/>
  <path class="cls-5" d="M98.87,19.82H.41c-.23,0-.41-.18-.41-.41v-1.96c0-.23.18-.41.41-.41h98.46c.23,0,.41.18.41.41v1.96c0,.23-.18.41-.41.41Z"/>
  <path class="cls-5" d="M234.11,19.82h-76.37c-.23,0-.41-.18-.41-.41v-1.96c0-.23.18-.41.41-.41h76.37c.23,0,.41.18.41.41v1.96c0,.23-.18.41-.41.41Z"/>
  <path class="cls-1" d="M148.97,20.99c-2.43-2.43-5.65-3.76-9.08-3.76s-6.66,1.33-9.09,3.76l-1.2,1.19-1.2-1.19c-2.42-2.43-5.65-3.76-9.08-3.76s-6.66,1.33-9.09,3.76c-5.01,5.01-5.01,13.16,0,18.17l17.95,17.95c.29.3.66.48,1.04.55.13.02.26.04.39.04.51,0,1.02-.19,1.41-.58l17.95-17.95c5.01-5.01,5.01-13.16,0-18.17ZM146.16,36.35l-16.56,16.57-16.55-16.57c-3.46-3.46-3.46-9.09,0-12.56,1.68-1.68,3.91-2.6,6.28-2.6s4.6.92,6.27,2.6l2.6,2.6c.75.75,2.06.75,2.81,0l2.6-2.6c1.67-1.68,3.91-2.6,6.28-2.6s4.6.92,6.28,2.6c3.46,3.46,3.46,9.1,0,12.56Z"/>
  <path class="cls-3" d="M129.6,52.92l-16.55-16.57c-.38-.38-.72-.79-1.02-1.22l16.13,16.14,17.37-17.38c1.87-1.87,2.78-4.34,2.72-6.79,1.11,3.13.41,6.76-2.09,9.25l-16.56,16.57ZM127.04,55.96c-.13-.08-.25-.18-.37-.29l-18.83-18.84c-2.61-2.61-3.93-6.03-3.94-9.46v-.14c.01-3.43,1.33-6.85,3.94-9.47,2.55-2.55,5.93-3.95,9.53-3.95s6.98,1.4,9.53,3.95l1.25,1.25,1.25-1.25c2.55-2.55,5.93-3.95,9.53-3.95s6.98,1.4,9.53,3.95,3.93,6.04,3.94,9.48c-.51-2.3-1.66-4.48-3.44-6.26-2.43-2.43-5.65-3.76-9.08-3.76s-6.66,1.33-9.09,3.76l-1.2,1.19-1.2-1.19c-2.42-2.43-5.65-3.76-9.08-3.76s-6.66,1.33-9.09,3.76c-5.01,5.01-5.01,13.16,0,18.17l16.8,16.8Z"/>
  <path class="cls-2" d="M112.02,35.13c.3.43.64.84,1.02,1.22l16.55,16.57,16.56-16.57c2.5-2.5,3.19-6.12,2.09-9.25-.05-2.32-.96-4.62-2.72-6.38-1.76-1.76-4.1-2.73-6.58-2.73s-4.83.97-6.59,2.73l-2.73,2.73c-.39.39-.93.59-1.47.59s-1.08-.2-1.47-.59l-2.73-2.73c-1.76-1.76-4.1-2.73-6.58-2.73s-4.83.97-6.59,2.73c-3.63,3.63-3.63,9.54,0,13.18l1.24,1.24ZM128.16,56.28c-.14,0-.27-.01-.41-.04-.25-.04-.5-.14-.72-.28l-16.8-16.8c-5.01-5.01-5.01-13.16,0-18.17,2.43-2.43,5.65-3.76,9.09-3.76s6.66,1.33,9.08,3.76l1.2,1.19,1.2-1.19c2.43-2.43,5.66-3.76,9.09-3.76s6.66,1.33,9.08,3.76c1.78,1.78,2.93,3.96,3.44,6.26.02,3.47-1.3,6.95-3.94,9.59l-18.83,18.84c-.41.41-.94.61-1.47.61Z"/>
  <path class="cls-5" d="M119.56,43.14c-.07.51-.14,1.02-.21,1.54-.1.71-.26,1.43-.28,2.15-.02.6.12,1.2.21,1.8.06.38.17.74.22,1.12.07.57.04,1.1-.31,1.61-.14.21-.12.55-.16.83-.05.34-.01.7-.12,1.01-.17.49-.82.72-1.33.55-.3-.1-.49-.58-.39-1.08.04-.21.06-.44.17-.62.36-.61.09-1.21-.02-1.8-.03-.14-.17-.29-.3-.38-.36-.26-.42-.61-.48-1.02-.08-.53-.3-1.03-.44-1.55-.09-.34-.23-.69-.23-1.04-.02-1.52.07-3.03.45-4.52.11-.41-.02-.73-.45-.85-.36-.11-.52-.36-.62-.7-.25-.85-.55-1.67-.95-2.48-.29-.57-.29-1.37-.18-2.03.33-2.18,1.02-4.27,1.96-6.25.39-.81,1.09-1.25,1.98-1.41.56-.1,1.13-.22,1.67-.38.49-.15.63-.48.45-.95-.2-.49-.29-.97.01-1.45.05-.09.02-.23.01-.34-.04-.74.4-1.28,1.11-1.46,1.51-.37,2.84.79,2.4,2.38-.16.58-.32,1.17-.53,1.74-.11.28-.34.52-.57.87.2.15.44.36.71.51.62.34.98.8,1.09,1.54.09.57.39,1.1.58,1.65.53,1.56.54,3.21.79,4.82.13.83,0,1.7.36,2.5.09.2-.02.49-.03.73-.02.56-.04,1.11-.05,1.66,0,.38.19.79-.22,1.1-.05.04-.06.15-.05.23.03.46.79,1.36,1.24,1.4.21.02.51-.08.64-.23.14-.16.21-.49.14-.69-.26-.82.43-1.79,1.29-1.85.68-.05,1.18.18,1.45.77.16.33.14.75.21,1.12.04.23.09.45.14.68.08.34.3.35.56.19.07-.04.14-.1.18-.16.32-.47.66-.93.92-1.43.09-.16.02-.45-.07-.63-.31-.66-.18-.9.19-1.52.38-.61.65-1.34.5-2.11-.17-.88-.05-1.74.03-2.61.11-1.16.17-2.32.24-3.48.02-.33.01-.66.03-.99.02-.41.22-.72.61-.89.82-.36,1.24-1.07,1.53-1.85.2-.54.3-1.11.47-1.66.13-.42.29-.84.46-1.25.25-.62.73-.83,1.38-.82.62,0,.96.35,1.22.85.24.45.49.9.72,1.35.09.17.17.36.18.55.05.59.09,1.19.08,1.78,0,.43.18.77.33,1.16.22.6.26,1.27.38,1.91.11.6.23,1.19.34,1.79.02.11.08.24.05.34-.37.96-.1,1.89.08,2.83.01.07.04.16,0,.19-.62.6.09,1.05.19,1.55.07.32.18.63.26.95.07.25.07.55.21.75.23.34.21.65.16,1.02-.09.61-.16.69-.67.63-.05-.42-.05-.83-.17-1.2-.24-.71-.55-1.4-.88-2.21,0,.29-.02.47,0,.64.12.98.38,1.95.36,2.92-.01.88.37,1.65.39,2.49.01.45.2.94-.45,1.12-.06.02-.11.12-.15.18-.65,1.11-1.25,2.25-1.97,3.31-.62.92-.48,1.72.05,2.57.04.07.09.14.13.21.26.44.32.86-.14,1.23.25.36.5.7.83,1.17-.35.02-.55.04-.74.04-.79,0-1.42-.43-2.06-.8-.07-.04-.15-.15-.16-.23-.02-.33-.06-.66,0-.98.1-.57.09-1.04-.15-1.64-.37-.89-.45-1.92-.59-2.89-.08-.55-.02-1.12-.02-1.65-.05-.04-.08-.08-.1-.08-.62-.04-.84-.39-.88-.99-.11-1.65-.29-3.29-.38-4.93-.04-.66.12-1.34.2-2.02-.36.09-.57.49-.49.92.07.4.2.77-.11,1.15-.09.11.04.41.08.62.07.32.04.55-.27.8-.26.21-.48.65-.46.98.07,1.23-.53,2.1-1.39,2.84-.34.29-.42.57-.39,1.02.05.68-.06,1.37-.09,2.05-.03.56-.05,1.11-.08,1.66-.01.3-.02.59-.03.88-.02.47-.01.94-.06,1.41-.03.26-.14.51-.23.76-.06.16-.19.31-.2.47-.05.45-.38.53-.71.5-.39-.03-.35-.31-.38-.65-.04-.71-.21-1.41-.42-2.12-.03.07-.1.16-.08.21.27.73-.1,1.34-.34,1.98-.12.34-.39.38-.63.31-.15-.05-.34-.28-.35-.45-.08-.78-.34-1.5-.62-2.24-.15-.38-.02-.87-.04-1.31-.02-.36.02-.75-.12-1.06-.42-.93-.38-1.87-.17-2.81.11-.46-.03-.73-.41-.86-.73-.26-.93-.95-1.27-1.5-.24-.4-.31-.9-.41-1.37-.07-.29-.16-.61.16-.86.07-.06.03-.27.04-.41-.05-.01-.1-.02-.15-.04-.08.2-.15.4-.23.6-.04,0-.08,0-.12,0-.32-.74.04-1.55-.12-2.31-.36.12-.84.15-1.05.4-.22.25-.28.73-.24,1.09.07.7.24,1.4.41,2.09.16.66.01,1.25-.25,1.87-.19.46-.34.97-.36,1.46-.06,1.8-.06,3.6-.08,5.4,0,.34-.04.61-.39.83-.3.18-.47.52-.19.89.1.13.17.28.25.43.32.59.21,1.08-.28,1.31-.6.28-1.29.07-1.5-.52-.14-.41-.61-.73-.35-1.27.02-.05-.26-.22-.36-.36-.11-.15-.25-.33-.24-.48.09-.79.2-1.59.34-2.38.43-2.28.05-4.54-.2-6.8-.03-.36-.2-.7-.3-1.05-.05,0-.11,0-.16.01ZM134.53,37.99c.12-.14.16-.17.17-.2.23-.71.46-1.42.67-2.13.05-.19,0-.4,0-.61l-.2-.03c-.21.95-.41,1.89-.65,2.97ZM137.58,47.03c.03.29.06.55.09.85.15-.18.27-.29.36-.42.09-.12.16-.26.25-.42h-.7Z"/>
  <path class="cls-4" d="M98.09,2.96v9.27h-1.13c-.26,0-.48-.07-.68-.2-.19-.13-.34-.3-.44-.54-.1-.23-.15-.5-.15-.81V2.96c0-.06-.02-.11-.05-.14-.04-.04-.09-.05-.15-.05h-.98c-.06,0-.11.02-.15.05-.03.04-.05.08-.05.14v7.71c0,.41.06.78.18,1.12.11.35.28.65.5.9.22.26.5.45.82.6.33.15.7.22,1.12.22h1.91c.2,0,.35-.05.45-.16.1-.1.16-.25.16-.45V2.96c0-.06-.02-.11-.05-.14-.04-.04-.08-.05-.14-.05h-.96c-.07,0-.12.02-.16.05-.03.04-.05.08-.05.14ZM96.89,1.73c.34,0,.63-.07.88-.19.25-.12.45-.3.6-.53.15-.23.25-.49.29-.8,0-.08-.02-.13-.06-.17-.04-.03-.09-.05-.16-.05h-.6c-.06,0-.11.02-.14.05-.04.03-.06.07-.07.14-.04.18-.11.32-.24.41-.13.1-.3.15-.51.15-.21,0-.38-.05-.5-.15-.12-.1-.2-.23-.24-.41-.02-.06-.05-.11-.09-.14-.04-.03-.08-.05-.14-.05h-.59c-.07,0-.11.02-.15.05-.04.03-.06.09-.05.16.03.31.12.57.27.8.15.23.36.4.61.53.25.12.54.18.88.19ZM91.18,2.96v9.27h-1.13c-.26,0-.49-.07-.67-.2-.19-.13-.34-.3-.44-.54-.1-.23-.15-.5-.15-.81V2.96c0-.06-.02-.11-.05-.14-.04-.04-.09-.05-.14-.05h-.98c-.06,0-.11.02-.14.05-.04.04-.06.08-.06.14v7.71c0,.41.06.78.18,1.12.11.35.28.65.5.9.22.26.5.45.82.6.33.15.7.22,1.13.22h1.91c.2,0,.35-.05.45-.16.11-.1.16-.25.16-.45V2.96c0-.06-.02-.11-.05-.14-.04-.04-.09-.05-.15-.05h-.96c-.07,0-.12.02-.16.05-.04.04-.05.08-.05.14ZM84.29,2.96v4.45h-2.35V2.96c0-.06-.02-.11-.05-.14-.03-.04-.09-.05-.15-.05h-.96c-.07,0-.12.02-.16.05-.04.04-.05.08-.05.14v10.29c0,.07.02.12.05.16.04.04.09.06.16.06h.96c.06,0,.11-.02.15-.06.04-.03.05-.09.05-.16v-4.57h2.35v4.57c0,.07.02.12.05.16.04.04.09.06.16.06h.96c.06,0,.11-.02.15-.06.03-.03.05-.09.05-.16V2.96c0-.06-.02-.11-.05-.14-.04-.04-.09-.05-.15-.05h-.96c-.07,0-.12.02-.16.05-.03.04-.05.08-.05.14ZM74.95,8.59v-3.22c0-.46.11-.82.32-1.07.22-.25.52-.38.91-.38s.71.13.92.38c.21.25.32.61.32,1.07v3.22h-2.48ZM73.77,13.47h.98c.06,0,.11-.02.15-.06.04-.03.05-.09.05-.16v-3.39h2.48v3.39c0,.07.02.12.06.16.04.04.09.06.16.06h.96c.07,0,.12-.02.16-.06.04-.03.05-.09.05-.16v-7.83c0-.57-.11-1.05-.33-1.48-.22-.42-.52-.75-.92-.98-.39-.23-.85-.35-1.38-.35-.53,0-.99.12-1.38.35-.39.23-.69.56-.91.98-.22.42-.33.91-.33,1.48v7.83c0,.07.02.12.05.16.04.04.09.06.15.06ZM66.89,13.47h.98c.07,0,.12-.02.16-.06.04-.03.06-.09.06-.16V4.05h2.35v9.2c0,.07.02.12.05.16.04.04.09.06.14.06h1c.06,0,.11-.02.14-.06.04-.03.05-.09.05-.16V3.58c0-.26-.07-.46-.21-.6-.14-.14-.34-.21-.6-.21h-3.52c-.27,0-.47.07-.61.21-.14.14-.21.34-.21.6v9.68c0,.07.01.12.05.16.04.04.09.06.16.06ZM57.21,13.47h.95c.07,0,.12-.02.15-.06.04-.03.05-.09.05-.16v-5.57c0-.55-.01-1.11-.03-1.65,0-.54-.02-1.09-.03-1.64h.05c.08.35.17.7.28,1.07.1.37.2.72.3,1.07l1.12,3.5c.05.17.13.3.24.39.11.09.26.13.45.13h.38c.18,0,.34-.05.45-.13.11-.09.19-.22.24-.39l1.12-3.5c.11-.35.21-.7.31-1.07.1-.37.19-.72.29-1.07h.03c-.02.55-.02,1.09-.03,1.64,0,.54-.01,1.09-.01,1.65l-.02,5.57c0,.07.02.12.05.16.04.04.09.06.15.06h.96c.06,0,.11-.02.14-.06.04-.03.05-.09.05-.16V3.36c0-.21-.05-.37-.16-.48-.11-.11-.26-.16-.46-.16h-.9c-.17,0-.3.04-.41.13-.11.09-.18.22-.23.4l-1.19,3.78c-.09.3-.19.61-.29.94-.1.33-.19.64-.27.95h-.03c-.09-.31-.18-.62-.28-.95-.1-.33-.19-.64-.29-.94l-1.19-3.78c-.05-.18-.12-.3-.23-.4-.1-.09-.24-.13-.41-.13h-.89c-.21,0-.36.05-.47.16-.1.11-.16.27-.16.48v9.89c0,.07.02.12.06.16.04.04.09.06.16.06ZM52.73,12.34c-.26,0-.49-.06-.69-.19-.19-.12-.35-.3-.46-.52-.11-.23-.16-.5-.17-.82v-5.38c0-.32.06-.59.17-.82.11-.23.26-.4.46-.53.2-.12.43-.18.69-.18s.49.06.68.18c.2.12.35.29.45.5.11.21.16.46.16.74v5.59c0,.28-.05.53-.16.74-.11.21-.25.38-.45.5-.19.12-.42.17-.68.18ZM52.73,13.62c.4,0,.77-.07,1.09-.21.33-.14.61-.33.85-.57.24-.25.42-.54.55-.88.13-.34.2-.7.2-1.1v-5.48c0-.4-.07-.77-.2-1.11-.13-.34-.31-.62-.55-.88-.24-.25-.52-.44-.85-.57-.33-.14-.69-.2-1.09-.21-.54,0-1,.12-1.41.36-.41.24-.72.57-.95,1-.23.43-.34.93-.35,1.51v5.26c0,.58.12,1.08.35,1.51.23.43.54.76.95,1,.4.24.87.36,1.41.36ZM43.69,13.47h.96c.06,0,.11-.02.14-.06.04-.03.06-.09.06-.16v-4.52h1.12c.27,0,.5.06.69.18.19.12.34.3.44.52.1.22.16.49.16.8v3.03c0,.07.02.12.06.16.03.04.09.06.16.06h.97c.07,0,.12-.02.16-.06.04-.03.06-.09.06-.16v-3c0-.39-.05-.75-.16-1.07-.1-.32-.25-.6-.45-.84-.2-.24-.45-.42-.74-.56l1.41-4.8c.02-.07,0-.12-.02-.16-.03-.04-.08-.07-.16-.07h-.96c-.06,0-.1.02-.15.04-.04.03-.07.07-.09.12l-1.25,4.51h-1.22V2.96c0-.06-.02-.11-.06-.14-.04-.04-.08-.05-.14-.05h-.96c-.07,0-.12.02-.16.05-.04.04-.05.08-.05.14v10.29c0,.07.01.12.05.16.04.04.09.06.16.06ZM34.53,8.59v-3.22c0-.46.11-.82.33-1.07.21-.25.52-.38.91-.38s.71.13.92.38c.21.25.32.61.32,1.07v3.22h-2.48ZM33.35,13.47h.98c.06,0,.11-.02.15-.06.03-.03.05-.09.05-.16v-3.39h2.48v3.39c0,.07.02.12.06.16.04.04.09.06.15.06h.96c.07,0,.12-.02.16-.06.04-.03.06-.09.06-.16v-7.83c0-.57-.12-1.05-.33-1.48-.22-.42-.53-.75-.92-.98-.39-.23-.86-.35-1.38-.35-.53,0-.98.12-1.38.35-.39.23-.7.56-.91.98-.21.42-.32.91-.33,1.48v7.83c0,.07.02.12.05.16.04.04.08.06.15.06ZM26.47,13.47h.98c.07,0,.12-.02.16-.06.04-.03.05-.09.05-.16V4.05h2.36v9.2c0,.07.02.12.05.16.04.04.08.06.14.06h.99c.06,0,.11-.02.14-.06.04-.03.05-.09.05-.16V3.58c0-.26-.07-.46-.21-.6-.14-.14-.34-.21-.6-.21h-3.52c-.27,0-.48.07-.62.21-.14.14-.21.34-.21.6v9.68c0,.07.02.12.06.16.04.04.09.06.16.06ZM19.49,13.47h.98c.07,0,.12-.02.16-.06.04-.03.06-.09.06-.16V4.05h2.35v9.2c0,.07.02.12.05.16.04.04.09.06.14.06h1c.06,0,.11-.02.14-.06.04-.03.06-.09.06-.16V3.58c0-.26-.07-.46-.21-.6-.14-.14-.34-.21-.6-.21h-3.51c-.27,0-.47.07-.61.21-.14.14-.21.34-.21.6v9.68c0,.07.02.12.05.16.04.04.09.06.16.06ZM12.73,13.53h2.17c.41,0,.77-.08,1.09-.21.32-.14.6-.33.83-.59.23-.25.41-.55.53-.89.12-.34.19-.71.19-1.12V2.96c0-.06-.02-.11-.05-.14-.04-.04-.09-.05-.15-.05h-.98c-.06,0-.11.02-.15.05-.04.04-.05.08-.05.14v5.32h-1.13c-.26,0-.48-.07-.67-.2-.19-.12-.34-.3-.45-.53-.1-.23-.15-.48-.16-.77v-3.82c0-.06-.02-.11-.06-.14-.04-.04-.09-.05-.16-.05h-.96c-.07,0-.12.02-.16.05-.04.04-.05.08-.05.14v3.79c0,.41.06.78.18,1.12.12.34.3.63.53.88.23.25.51.44.83.58.32.14.69.21,1.1.21h1.14v1.19c0,.3-.05.56-.16.78-.1.23-.25.4-.44.53-.19.12-.42.19-.68.19h-2.14c-.06,0-.11.02-.14.05-.04.04-.05.09-.05.16v.86c0,.07.02.12.05.16.04.04.08.05.14.05ZM7.71,8.33v-2.96c0-.3.05-.56.15-.78.09-.22.24-.39.41-.51.18-.12.39-.18.64-.18s.47.06.65.18c.18.12.32.29.42.51.1.22.15.48.15.78v1.65c0,.42-.11.74-.34.97-.22.23-.53.35-.93.35h-1.16ZM6.54,13.47h.98c.06,0,.11-.02.14-.06.04-.03.05-.09.05-.16v-3.64h1.21c.54,0,1-.12,1.38-.34.39-.22.69-.52.91-.91.21-.4.32-.86.32-1.38v-1.56c0-.56-.11-1.05-.33-1.47-.21-.42-.52-.75-.91-.99-.39-.24-.86-.35-1.39-.36-.53,0-.98.12-1.36.36-.38.24-.68.57-.89.99-.21.42-.31.91-.32,1.47v7.83c0,.07.02.12.06.16.04.04.08.06.14.06ZM1.05,13.47h.98c.06,0,.11-.02.14-.06.04-.03.06-.09.06-.16v-7.76c0-.48.12-.84.35-1.1.23-.26.57-.38,1.01-.39h1.53c.06,0,.11-.02.14-.06.04-.04.05-.09.05-.16v-.86c0-.06-.02-.11-.05-.15-.03-.04-.09-.06-.14-.06h-1.56c-.56,0-1.05.12-1.45.34-.41.23-.71.55-.93.97-.22.43-.32.93-.33,1.51v7.7c0,.07.02.12.05.16.04.04.08.06.15.06Z"/>
  <g>
    <path class="cls-6" d="M58.76,71.55v-3.53c0-1.71,1.13-2.94,2.83-2.94s2.7,1.12,2.81,2.75c.02.14-.07.23-.23.23h-1.06c-.14,0-.23-.07-.25-.23-.07-.81-.52-1.28-1.26-1.28-.79,0-1.28.56-1.28,1.4v3.64c0,.85.49,1.4,1.3,1.4.76,0,1.24-.52,1.31-1.4.02-.18.09-.25.23-.25h1.08c.14,0,.23.09.23.27-.11,1.69-1.21,2.86-2.85,2.86s-2.86-1.22-2.86-2.93Z"/>
    <path class="cls-6" d="M65.51,71.57c0-1.49,1.15-2.65,2.84-2.65h1.35v-.99c0-.81-.49-1.37-1.3-1.37-.76,0-1.17.5-1.22,1.24-.02.16-.09.22-.25.22h-1.04c-.14,0-.23-.11-.23-.25.11-1.57,1.17-2.68,2.77-2.68,1.71,0,2.81,1.22,2.81,2.92v3.62c0,1.66-1.08,2.84-2.81,2.84s-2.92-1.21-2.92-2.9ZM69.7,71.62v-1.31h-1.3c-.85,0-1.35.56-1.35,1.26,0,.86.5,1.42,1.35,1.42s1.3-.54,1.3-1.37Z"/>
    <path class="cls-6" d="M77.12,65.29h1.04c.14,0,.23.09.23.23v8.52c0,.16-.09.25-.23.25h-1.04c-.16,0-.25-.09-.25-.25v-3.66h-2.41v3.66c0,.16-.09.25-.23.25h-1.04c-.16,0-.25-.09-.25-.25v-8.52c0-.14.09-.23.25-.23h1.04c.14,0,.23.09.23.23v3.42h2.41v-3.42c0-.14.09-.23.25-.23Z"/>
    <path class="cls-6" d="M79.96,71.57c0-1.49,1.15-2.65,2.84-2.65h1.35v-.99c0-.81-.49-1.37-1.3-1.37-.76,0-1.17.5-1.22,1.24-.02.16-.09.22-.25.22h-1.04c-.14,0-.23-.11-.23-.25.11-1.57,1.17-2.68,2.77-2.68,1.71,0,2.81,1.22,2.81,2.92v3.62c0,1.66-1.08,2.84-2.81,2.84s-2.92-1.21-2.92-2.9ZM84.15,71.62v-1.31h-1.3c-.85,0-1.35.56-1.35,1.26,0,.86.5,1.42,1.35,1.42s1.3-.54,1.3-1.37Z"/>
    <path class="cls-6" d="M88.35,74.04v-7.29h-1.76c-.16,0-.25-.09-.25-.25v-.97c0-.14.09-.23.25-.23h5.1c.14,0,.23.09.23.23v.97c0,.16-.09.25-.23.25h-1.78v7.29c0,.16-.09.25-.25.25h-1.04c-.16,0-.25-.09-.25-.25Z"/>
    <path class="cls-6" d="M92.58,71.55v-3.53c0-1.71,1.15-2.94,2.88-2.94s2.88,1.22,2.88,2.94v3.53c0,1.71-1.13,2.93-2.88,2.93s-2.88-1.22-2.88-2.93ZM96.79,71.61v-3.64c0-.85-.5-1.42-1.33-1.42s-1.31.58-1.31,1.42v3.64c0,.85.49,1.42,1.31,1.42s1.33-.58,1.33-1.42Z"/>
    <path class="cls-6" d="M105.65,68.02v3.53c0,1.71-1.15,2.93-2.61,2.93-.65,0-1.17-.23-1.58-.61v3.78c0,.14-.09.23-.23.23h-1.06c-.16,0-.25-.09-.25-.23v-9.63c0-1.71,1.15-2.94,2.88-2.94s2.86,1.22,2.86,2.94ZM104.1,67.97c0-.85-.49-1.4-1.31-1.4s-1.33.56-1.33,1.4v3.64c0,.85.5,1.4,1.33,1.4s1.31-.56,1.31-1.4v-3.64Z"/>
    <path class="cls-6" d="M107,71.46v-5.94c0-.14.09-.23.25-.23h1.04c.16,0,.25.09.25.23v6c0,.81.54,1.33,1.35,1.33h1.1v-7.33c0-.14.09-.23.23-.23h1.06c.14,0,.23.09.23.23v7.89c0,.59-.32.9-.9.9h-1.73c-1.69,0-2.9-1.15-2.9-2.84Z"/>
    <path class="cls-6" d="M114.36,71.46v-5.94c0-.14.09-.23.25-.23h1.04c.16,0,.25.09.25.23v6c0,.81.54,1.33,1.35,1.33h1.1v-7.33c0-.14.09-.23.23-.23h1.06c.14,0,.23.09.23.23v7.89c0,.59-.32.9-.9.9h-1.73c-1.69,0-2.9-1.15-2.9-2.84Z"/>
    <path class="cls-6" d="M125.64,71.46v-5.94c0-.14.09-.23.25-.23h1.04c.16,0,.25.09.25.23v6c0,.81.54,1.33,1.35,1.33h1.1v-7.33c0-.14.09-.23.23-.23h1.06c.14,0,.23.09.23.23v7.89c0,.59-.32.9-.9.9h-1.73c-1.69,0-2.9-1.15-2.9-2.84Z"/>
    <path class="cls-6" d="M142.6,71.77v2.27c0,.16-.09.25-.23.25h-1.06c-.14,0-.23-.09-.23-.25v-2.32c0-.81-.56-1.33-1.37-1.33h-1.08v3.66c0,.16-.09.25-.25.25h-1.04c-.16,0-.25-.09-.25-.25v-8.52c0-.14.09-.23.25-.23h1.04c.16,0,.25.09.25.23v3.4h.88l1.66-3.46c.05-.13.14-.18.29-.18h1.12c.16,0,.27.11.2.29l-1.78,3.66c.97.4,1.62,1.33,1.62,2.54Z"/>
    <path class="cls-6" d="M149.69,65.52v9.63c0,1.78-1.12,2.93-2.84,2.93-1.64,0-2.74-1.13-2.83-2.9-.02-.16.07-.25.23-.25h1.06c.14,0,.22.07.23.25.05.9.52,1.42,1.3,1.42.83,0,1.3-.52,1.3-1.4v-1.82c-.34.4-.85.65-1.42.65-1.58,0-2.72-1.21-2.72-2.92v-5.6c0-.14.09-.23.25-.23h1.04c.16,0,.25.09.25.23v5.65c0,.83.49,1.4,1.3,1.4s1.3-.58,1.3-1.4v-5.65c0-.14.09-.23.25-.23h1.04c.14,0,.25.09.25.23Z"/>
    <path class="cls-6" d="M157.27,68.02v3.53c0,1.71-1.15,2.93-2.61,2.93-.65,0-1.17-.23-1.58-.61v3.78c0,.14-.09.23-.23.23h-1.06c-.16,0-.25-.09-.25-.23v-9.63c0-1.71,1.15-2.94,2.88-2.94s2.86,1.22,2.86,2.94ZM155.72,67.97c0-.85-.49-1.4-1.31-1.4s-1.33.56-1.33,1.4v3.64c0,.85.5,1.4,1.33,1.4s1.31-.56,1.31-1.4v-3.64Z"/>
    <path class="cls-6" d="M158.67,71.55v-3.53c0-1.71,1.15-2.94,2.88-2.94s2.88,1.22,2.88,2.94v3.53c0,1.71-1.13,2.93-2.88,2.93s-2.88-1.22-2.88-2.93ZM162.89,71.61v-3.64c0-.85-.5-1.42-1.33-1.42s-1.31.58-1.31,1.42v3.64c0,.85.49,1.42,1.31,1.42s1.33-.58,1.33-1.42Z"/>
    <path class="cls-6" d="M171.74,68.02v3.53c0,1.71-1.15,2.93-2.61,2.93-.65,0-1.17-.23-1.58-.61v3.78c0,.14-.09.23-.23.23h-1.06c-.16,0-.25-.09-.25-.23v-9.63c0-1.71,1.15-2.94,2.88-2.94s2.86,1.22,2.86,2.94ZM170.19,67.97c0-.85-.49-1.4-1.31-1.4s-1.33.56-1.33,1.4v3.64c0,.85.5,1.4,1.33,1.4s1.31-.56,1.31-1.4v-3.64Z"/>
    <path class="cls-6" d="M174.4,74.04v-7.29h-1.76c-.16,0-.25-.09-.25-.25v-.97c0-.14.09-.23.25-.23h5.1c.14,0,.23.09.23.23v.97c0,.16-.09.25-.23.25h-1.78v7.29c0,.16-.09.25-.25.25h-1.04c-.16,0-.25-.09-.25-.25Z"/>
    <path class="cls-6" d="M179.19,73.44v-7.92c0-.14.09-.23.25-.23h1.04c.14,0,.23.09.23.23v3.24h1.24c1.67,0,2.9,1.1,2.9,2.75s-1.26,2.83-2.92,2.83h-1.85c-.58,0-.9-.32-.9-.9ZM181.95,72.89c.81,0,1.37-.52,1.37-1.39s-.56-1.33-1.37-1.33h-1.22v2.72h1.22ZM185.67,74.04v-8.52c0-.14.09-.23.23-.23h1.06c.14,0,.23.09.23.23v8.52c0,.16-.09.25-.23.25h-1.06c-.14,0-.23-.09-.23-.25Z"/>
  </g>
</svg>